<?xml version="1.0" standalone="no"?>
<!DOCTYPE svg PUBLIC "-//W3C//DTD SVG 20010904//EN"
 "http://www.w3.org/TR/2001/REC-SVG-20010904/DTD/svg10.dtd">
<svg version="1.0" xmlns="http://www.w3.org/2000/svg"
 width="1280.000000pt" height="720.000000pt" viewBox="0 0 1280.000000 720.000000"
 preserveAspectRatio="xMidYMid meet">

<g transform="translate(0.000000,720.000000) scale(0.100000,-0.100000)"
fill="#000000" stroke="none">
<path d="M0 3600 l0 -3601 110 2 c75 1 110 5 110 13 0 7 3 7 8 -1 6 -9 41 -12
116 -12 l108 0 -5 35 c-4 20 -2 32 4 29 5 -4 9 -19 9 -36 l0 -29 530 0 530 0
0 30 c0 20 -5 30 -15 30 -8 0 -15 7 -15 15 0 8 6 15 13 15 7 0 17 10 22 22 10
24 65 39 65 19 0 -6 -9 -11 -20 -11 -11 0 -20 -7 -20 -15 0 -8 9 -15 20 -15
11 0 20 -5 20 -11 0 -6 -9 -13 -20 -16 -14 -4 -20 -14 -20 -34 0 -26 3 -29 34
-29 30 0 34 4 40 32 8 42 23 58 56 58 33 0 48 -16 56 -59 9 -43 29 -33 29 15
0 37 2 39 38 45 45 7 67 -12 67 -59 0 -29 3 -32 30 -32 28 0 30 3 30 35 0 24
-5 35 -15 35 -8 0 -15 5 -15 10 0 6 7 10 15 10 8 0 15 9 15 20 0 26 26 26 33
0 3 -12 14 -20 26 -20 28 0 27 -18 -1 -22 -18 -2 -24 -11 -26 -35 l-3 -33 130
0 131 0 0 29 c0 18 -8 34 -22 44 -20 14 -20 16 -5 16 10 1 22 12 27 26 7 19
17 25 40 25 16 0 30 -4 30 -10 0 -5 -9 -10 -20 -10 -11 0 -20 -5 -20 -11 0 -6
9 -13 20 -16 26 -7 26 -19 0 -26 -15 -4 -20 -14 -20 -36 0 -28 3 -31 30 -31
19 0 33 7 40 20 7 13 21 20 41 20 20 0 29 4 26 13 -2 6 -17 12 -32 12 -16 0
-30 5 -32 12 -6 18 44 28 73 14 20 -9 24 -18 24 -51 0 -29 4 -40 15 -40 11 0
15 12 15 45 0 38 3 45 23 49 19 4 64 3 90 -2 4 -1 7 -22 7 -47 0 -45 0 -45 35
-45 32 0 35 2 35 30 0 17 -7 33 -17 39 -15 9 -16 12 -4 20 27 18 51 -6 51 -49
l0 -40 50 0 50 0 0 56 c0 43 -4 60 -17 70 -17 12 -17 13 0 19 37 15 47 -1 47
-75 l0 -70 44 0 45 0 -15 35 c-18 43 -18 55 0 55 8 0 19 -13 25 -30 13 -38 24
-38 38 0 6 16 18 30 27 30 19 0 19 1 1 -43 -8 -20 -15 -39 -15 -41 0 -11 2799
-6 2805 4 8 13 52 13 60 0 4 -6 1207 -10 3496 -10 l3489 0 0 3600 0 3600
-3079 0 c-2454 0 -3080 -3 -3084 -12 -4 -10 -6 -10 -6 0 -1 9 -513 12 -2528
11 -1656 0 -2520 -4 -2504 -10 l25 -10 -27 -25 c-15 -14 -25 -29 -22 -34 10
-16 -13 -57 -35 -63 -27 -7 -39 19 -17 36 9 7 17 31 19 57 l3 45 -772 3 -773
2 0 -3600z m1011 3067 c-10 -9 -11 -8 -5 6 3 10 9 15 12 12 3 -3 0 -11 -7 -18z
m-20 -44 c-8 -15 -10 -15 -11 -2 0 17 10 32 18 25 2 -3 -1 -13 -7 -23z m163
-28 c-4 -8 -16 -15 -28 -15 -12 0 -27 -5 -34 -12 -7 -7 -12 -9 -12 -5 0 15 36
43 57 45 16 1 21 -2 17 -13z m123 -239 c-3 -8 -1 -17 6 -19 9 -3 8 -8 -2 -20
-7 -10 -14 -37 -15 -61 -1 -32 -4 -42 -13 -35 -8 7 -8 20 -2 45 6 19 7 44 4
55 -4 11 -1 26 5 34 16 19 24 19 17 1z m111 -16 c-2 -16 0 -31 4 -32 5 -2 2
-17 -6 -33 -9 -17 -16 -38 -16 -47 0 -9 -5 -20 -12 -24 -8 -5 -9 4 -5 32 18
106 25 134 34 134 3 0 3 -13 1 -30z m82 -58 c-16 -85 -33 -116 -27 -49 4 37 1
50 -11 54 -12 5 -12 8 5 14 12 4 23 21 28 41 13 60 17 8 5 -60z m-365 28 c-8
-16 -15 -40 -15 -55 0 -14 -4 -25 -9 -25 -8 0 3 92 14 110 15 24 24 -3 10 -30z
m785 -64 l-13 -86 -39 4 c-22 2 -42 6 -44 9 -3 3 -5 24 -6 46 0 44 23 81 50
81 12 0 11 -4 -5 -20 -23 -20 -39 -73 -28 -90 11 -17 44 -11 56 11 6 12 9 37
6 55 -3 19 -2 34 3 34 5 0 12 11 16 25 14 54 16 12 4 -69z m131 74 c23 -13 25
-47 3 -71 -14 -16 -15 -23 -4 -48 6 -17 10 -36 7 -43 -3 -7 -9 0 -16 17 -6 17
-16 38 -21 47 -13 24 -13 25 10 31 27 7 27 53 0 62 -31 10 -43 -4 -37 -44 3
-23 0 -41 -9 -49 -8 -7 -14 -24 -14 -37 0 -14 -4 -25 -10 -25 -5 0 -10 6 -10
13 0 16 19 127 25 145 5 15 49 16 76 2z m-856 -76 c-24 -36 -38 -29 -15 9 11
17 21 41 21 52 1 12 4 9 6 -8 3 -16 -3 -39 -12 -53z m435 23 c0 -73 -7 -86
-47 -82 -19 1 -39 7 -45 13 -16 16 -5 56 17 60 12 2 16 0 8 -5 -21 -15 -20
-48 3 -51 30 -4 51 24 36 49 -10 16 -9 19 3 19 8 0 15 7 15 15 0 8 -5 15 -11
15 -5 0 -7 5 -4 10 12 20 25 -2 25 -43z m166 24 c-3 -4 -17 -6 -30 -4 -19 4
-28 -1 -40 -25 -9 -17 -16 -42 -16 -57 0 -14 -5 -25 -11 -25 -7 0 -9 14 -4 43
12 76 12 77 61 77 25 0 43 -4 40 -9z m828 -93 l-16 -86 -41 2 c-40 1 -42 3
-45 35 -4 39 13 87 34 95 18 7 18 3 -6 -36 -24 -39 -24 -48 -6 -73 14 -19 15
-19 35 -1 24 21 28 74 9 95 -11 11 -10 13 4 8 12 -4 19 3 27 25 19 55 21 24 5
-64z m-494 45 c-13 -23 -19 -45 -15 -60 6 -27 36 -31 55 -7 18 20 17 74 -1 84
-7 5 -10 12 -6 16 14 14 37 -20 37 -55 0 -49 -24 -81 -59 -81 -32 0 -41 14
-41 65 0 22 8 41 22 55 31 29 33 25 8 -17z m135 -29 c-6 -47 -5 -57 11 -70 18
-14 18 -14 -6 -12 -23 3 -25 7 -22 48 2 53 10 90 18 90 3 0 2 -25 -1 -56z
m633 -49 c-13 -70 -13 -70 -48 -73 -44 -4 -60 17 -53 66 6 39 19 62 35 62 6 0
3 -11 -6 -25 -30 -45 -12 -104 27 -89 21 8 32 66 18 93 -9 17 -9 21 3 21 7 0
17 12 22 28 14 50 16 -7 2 -83z m-1874 80 c-4 -8 -10 -15 -15 -15 -5 0 -9 7
-9 15 0 8 7 15 15 15 9 0 12 -6 9 -15z m1312 -60 c-6 -30 -15 -54 -21 -52 -11
5 -11 12 6 80 17 63 28 42 15 -28z m692 61 c15 -9 16 -42 2 -51 -6 -4 -7 -23
-4 -44 5 -33 3 -41 -17 -54 -12 -9 -25 -14 -28 -11 -3 3 2 10 12 15 32 18 14
69 -24 69 -21 0 -32 -59 -12 -67 22 -8 15 -25 -9 -21 -27 4 -28 24 -9 115 12
57 14 59 45 58 18 -1 38 -5 44 -9z m-553 -6 c8 -14 -5 -120 -15 -120 -5 0 -6
27 -3 60 5 56 5 60 -16 60 -22 0 -32 -16 -48 -80 -13 -52 -21 -23 -10 38 l9
52 38 0 c21 0 42 -5 45 -10z m277 -24 c13 -19 9 -56 -6 -56 -20 0 -29 17 -14
23 10 3 10 9 2 23 -14 24 -34 24 -48 1 -8 -14 -8 -20 4 -27 13 -8 12 -10 -2
-10 -22 0 -24 -33 -3 -50 8 -6 23 -9 35 -5 11 4 20 2 20 -4 0 -14 -45 -14 -71
-1 -33 18 -18 93 25 122 13 9 48 -1 58 -16z m521 -34 c-25 -7 -30 -110 -5
-104 7 1 12 -3 12 -9 0 -6 -10 -9 -22 -7 -21 3 -23 9 -24 63 -1 38 5 69 14 83
l15 23 11 -23 c9 -18 9 -24 -1 -26z m136 -14 c-26 -10 -27 -84 -1 -105 16 -12
15 -13 -8 -11 -24 3 -25 6 -23 63 1 33 5 70 8 82 l7 22 18 -22 c18 -21 18 -22
-1 -29z m-317 -18 c-3 -30 1 -57 8 -65 10 -12 9 -15 -3 -15 -24 0 -29 16 -22
75 9 69 21 72 17 5z m74 -14 c-7 -51 -20 -76 -33 -63 -3 3 0 21 5 39 6 18 13
46 17 62 10 47 18 21 11 -38z m408 2 c12 -34 -11 -80 -47 -93 -24 -8 -31 -6
-44 10 -17 23 -10 72 13 95 14 13 14 12 3 -12 -23 -51 12 -106 46 -72 18 18
20 57 4 86 -9 16 -8 19 3 16 7 -3 17 -16 22 -30z m69 -25 c-8 -27 -17 -54 -19
-62 -3 -8 -7 -11 -11 -7 -10 10 19 116 32 116 9 0 9 -12 -2 -47z m65 22 c5
-23 -8 -108 -15 -101 -10 10 -8 126 2 123 6 -2 12 -12 13 -22z m102 -45 c23
-12 24 -50 2 -58 -8 -2 -10 2 -6 13 5 11 -2 25 -20 41 -27 26 -31 36 -19 48 4
4 11 -2 15 -13 4 -11 16 -25 28 -31z m295 30 c11 -17 -6 -121 -19 -117 -6 2
-9 19 -7 43 3 21 5 49 5 62 1 23 11 29 21 12z m134 -63 c-15 -66 -16 -66 -15
0 1 44 4 59 12 52 8 -7 9 -22 3 -52z m618 31 c-3 -7 -5 -2 -5 12 0 14 2 19 5
13 2 -7 2 -19 0 -25z m-673 11 c-4 -6 -13 -32 -20 -58 l-14 -46 5 48 c5 53 11
67 26 67 6 0 7 -5 3 -11z m-3047 -31 c-3 -8 -6 -5 -6 6 -1 11 2 17 5 13 3 -3
4 -12 1 -19z m3173 -8 c0 -10 7 -20 15 -24 20 -7 19 -17 -7 -53 l-23 -30 -1
68 c0 37 3 66 8 63 4 -3 8 -13 8 -24z m41 -7 c-12 -20 -14 -14 -5 12 4 9 9 14
11 11 3 -2 0 -13 -6 -23z m-3040 -37 c-6 -7 -13 -31 -17 -54 -5 -35 -4 -42 10
-42 9 0 16 -4 16 -10 0 -6 -9 -6 -22 -1 -21 8 -23 14 -19 72 4 72 20 105 33
69 5 -13 4 -28 -1 -34z m189 45 c0 -4 -11 -6 -25 -3 -27 5 -55 -12 -55 -33 0
-7 16 -22 36 -34 30 -18 35 -25 32 -53 -4 -40 -43 -59 -80 -39 -14 7 -16 10
-4 6 22 -7 66 20 66 40 0 7 -14 22 -30 32 -60 35 -47 93 20 93 22 0 40 -4 40
-9z m3112 -36 c11 -15 10 -45 -2 -45 -5 0 -10 11 -10 25 0 16 -6 25 -15 25 -8
0 -15 2 -15 4 0 2 -3 13 -7 23 -6 17 -4 16 18 -2 13 -11 27 -24 31 -30z m154
-3 c-4 -3 -12 0 -18 6 -9 9 -9 12 0 12 7 0 13 8 13 18 1 10 3 8 6 -6 3 -13 2
-26 -1 -30z m-3006 13 c-7 -8 -9 -18 -6 -24 3 -5 0 -22 -8 -38 -8 -15 -19 -44
-24 -63 -9 -31 -10 -27 -9 32 1 38 5 68 8 68 3 0 11 12 17 26 7 14 17 22 23
19 7 -5 6 -11 -1 -20z m2699 -70 l0 -20 -9 20 c-5 11 -8 38 -8 60 l0 40 9 -40
c4 -22 8 -49 8 -60z m-3315 76 c3 -5 -1 -22 -9 -37 -9 -17 -13 -40 -9 -56 4
-22 2 -28 -11 -28 -13 0 -15 6 -11 28 3 15 8 44 12 65 6 36 17 47 28 28z
m3580 -12 c-3 -5 -12 -9 -20 -9 -18 0 -18 -10 2 -39 16 -22 15 -23 -2 -19 -12
2 -20 13 -22 31 -5 41 3 56 27 50 12 -3 18 -9 15 -14z m531 1 c0 -7 -6 -15
-12 -17 -8 -3 -13 4 -13 17 0 13 5 20 13 18 6 -3 12 -11 12 -18z m-3375 -55
c-5 -6 -12 -29 -16 -52 -5 -36 -4 -41 17 -48 21 -6 21 -8 6 -12 -33 -9 -48 16
-41 64 4 28 2 48 -6 58 -10 12 -10 15 3 15 9 0 19 10 23 23 7 21 8 21 15 -7 5
-17 4 -35 -1 -41z m1900 55 c0 -5 -4 -10 -9 -10 -6 0 -13 5 -16 10 -3 6 1 10
9 10 9 0 16 -4 16 -10z m254 -6 c9 -24 7 -28 -9 -14 -17 14 -20 30 -6 30 5 0
12 -7 15 -16z m-2824 -24 c0 -55 -34 -101 -63 -83 -6 4 -2 10 11 14 25 9 46
54 39 81 -3 10 -1 18 4 18 5 0 9 -13 9 -30z m848 18 c16 -16 15 -48 -3 -68
-12 -13 -13 -23 -4 -48 17 -50 4 -62 -16 -14 -25 60 -65 55 -65 -9 0 -10 -4
-19 -10 -19 -5 0 -10 6 -10 13 0 16 19 127 25 145 6 15 67 16 83 0z m2922 -9
c0 -5 -7 -9 -15 -9 -19 0 -19 -9 2 -32 20 -23 8 -38 -13 -16 -20 20 -10 80 12
71 8 -3 14 -9 14 -14z m-3358 -6 c49 -44 -14 -150 -70 -115 -24 16 -26 75 -2
105 25 31 46 34 72 10z m3408 13 c0 -11 -19 -15 -25 -6 -3 5 1 10 9 10 9 0 16
-2 16 -4z m604 -12 c4 -10 1 -14 -6 -12 -15 5 -23 28 -10 28 5 0 13 -7 16 -16z
m-2997 -36 c-3 -13 -11 -53 -18 -89 -12 -64 -13 -66 -43 -66 -44 0 -56 13 -56
62 0 52 26 81 64 71 21 -5 27 -2 32 19 3 14 11 25 16 25 6 0 8 -10 5 -22z
m-449 0 c17 -17 15 -80 -4 -106 -12 -17 -24 -22 -47 -20 -31 3 -32 5 -35 52
-2 35 2 53 14 67 19 22 54 25 72 7z m2682 -10 c0 -13 -23 -5 -28 10 -2 7 2 10
12 6 9 -3 16 -11 16 -16z m1030 -24 c0 -6 -6 -14 -13 -17 -9 -3 -13 6 -14 31
-1 33 0 35 13 17 8 -10 14 -24 14 -31z m-4877 16 c6 -24 -3 -32 -23 -20 -11 7
-11 11 -1 24 17 20 18 20 24 -4z m1240 -40 c-5 -56 -4 -60 15 -60 22 0 30 13
48 80 10 39 12 41 12 15 1 -16 -2 -48 -6 -70 -7 -36 -10 -40 -37 -41 -53 -1
-58 4 -52 62 5 49 12 74 22 74 3 0 2 -27 -2 -60z m637 -23 c-14 -88 -24 -107
-41 -90 -9 9 -9 15 0 27 16 19 17 74 3 88 -9 9 -17 7 -32 -7 -25 -23 -27 -80
-3 -94 21 -11 13 -24 -10 -15 -58 22 -8 148 51 130 15 -5 21 -1 26 20 14 53
17 13 6 -59z m2200 57 c0 -8 -4 -12 -10 -9 -5 3 -10 13 -10 21 0 8 5 12 10 9
6 -3 10 -13 10 -21z m685 16 c-3 -5 -17 -10 -31 -10 -14 0 -22 4 -19 10 3 6
17 10 31 10 14 0 22 -4 19 -10z m-3315 -15 c13 -15 3 -112 -13 -122 -6 -4 -7
13 -3 48 8 69 -6 94 -33 61 -11 -12 -22 -40 -26 -62 -4 -22 -11 -40 -17 -40
-5 0 -7 12 -4 28 3 15 8 43 11 63 6 32 10 35 40 36 19 1 39 -5 45 -12z m551 5
c20 -11 26 -45 10 -55 -5 -3 -7 -22 -4 -42 5 -28 2 -39 -12 -49 -24 -18 -95
-19 -95 -1 0 22 21 140 26 149 7 11 52 10 75 -2z m2237 -19 c3 -8 -1 -12 -9
-9 -7 2 -15 10 -17 17 -3 8 1 12 9 9 7 -2 15 -10 17 -17z m897 9 c3 -5 -1 -10
-10 -10 -9 0 -13 5 -10 10 3 6 8 10 10 10 2 0 7 -4 10 -10z m-3414 -10 c22
-12 26 -60 5 -60 -9 0 -12 7 -9 18 6 26 -22 48 -42 32 -21 -17 -19 -29 8 -40
21 -8 21 -9 -6 -9 -24 -1 -28 -5 -25 -23 2 -18 12 -24 38 -29 27 -4 31 -7 17
-13 -47 -22 -87 21 -73 78 12 49 47 67 87 46z m533 -46 c-8 -6 -19 -26 -26
-44 -10 -30 -9 -35 12 -52 l22 -18 -26 0 c-25 0 -26 2 -26 60 0 33 5 69 11 79
11 17 13 17 29 2 14 -13 15 -18 4 -27z m2481 8 c-9 -9 -35 8 -35 24 0 16 2 16
20 -1 11 -10 18 -20 15 -23z m-2346 -22 c-9 -8 -19 -29 -23 -47 -4 -26 -1 -35
17 -48 l21 -15 -27 0 c-26 0 -27 1 -27 60 0 33 5 69 11 79 11 17 13 17 28 2
15 -15 15 -17 0 -31z m2231 40 c0 -5 -4 -10 -10 -10 -5 0 -10 5 -10 10 0 6 5
10 10 10 6 0 10 -4 10 -10z m770 6 c0 -11 -19 -15 -25 -6 -3 5 1 10 9 10 9 0
16 -2 16 -4z m120 -6 c0 -5 -2 -10 -4 -10 -3 0 -8 5 -11 10 -3 6 -1 10 4 10 6
0 11 -4 11 -10z m-3439 -62 c-2 -33 2 -54 10 -59 18 -11 6 -21 -15 -13 -17 7
-21 47 -10 103 10 46 18 28 15 -31z m66 -30 c-9 -36 -15 -45 -26 -39 -11 7
-11 13 3 32 9 13 16 35 16 50 0 14 3 29 8 33 12 13 12 -27 -1 -76z m2993 63
c0 -12 -29 -23 -41 -15 -5 3 -7 10 -4 15 8 12 45 12 45 0z m-2596 -7 c22 -8
22 -87 0 -108 -39 -40 -92 -4 -79 55 11 49 40 68 79 53z m2826 -9 c10 -12 10
-15 -4 -15 -9 0 -16 7 -16 15 0 8 2 15 4 15 2 0 9 -7 16 -15z m-2735 -28 c-8
-12 -15 -36 -15 -54 0 -18 -5 -33 -11 -33 -14 0 -3 88 13 107 17 21 29 3 13
-20z m60 22 c9 -13 -4 -119 -13 -119 -4 0 -7 29 -7 65 0 62 6 78 20 54z m76
-13 c-10 -12 -6 -19 18 -37 17 -13 31 -30 31 -40 0 -20 -28 -45 -38 -34 -4 4
-1 10 6 12 21 8 13 33 -13 43 -27 10 -33 38 -13 58 17 17 23 15 9 -2z m54 4
c3 -5 2 -10 -4 -10 -5 0 -13 5 -16 10 -3 6 -2 10 4 10 5 0 13 -4 16 -10z
m2685 0 c0 -5 -7 -10 -15 -10 -8 0 -15 5 -15 10 0 6 7 10 15 10 8 0 15 -4 15
-10z m-2416 -28 c8 -25 -8 -108 -19 -102 -12 6 -12 61 -1 79 4 6 5 18 2 26 -3
8 -1 15 4 15 5 0 11 -8 14 -18z m753 -29 c-3 -10 -5 -2 -5 17 0 19 2 27 5 18
2 -10 2 -26 0 -35z m-667 28 c0 -6 -4 -12 -9 -15 -5 -4 -12 -24 -16 -46 -4
-22 -11 -43 -17 -46 -6 -4 -8 1 -5 12 3 11 9 35 12 54 4 19 9 38 12 43 6 10
23 9 23 -2z m50 -22 c0 -10 -4 -19 -10 -19 -5 0 -10 12 -10 26 0 14 4 23 10
19 6 -3 10 -15 10 -26z m2886 4 c-10 -10 -19 5 -10 18 6 11 8 11 12 0 2 -7 1
-15 -2 -18z m129 -3 c3 -5 2 -10 -4 -10 -5 0 -13 5 -16 10 -3 6 -2 10 4 10 5
0 13 -4 16 -10z m-2945 -25 c10 -25 30 -35 30 -13 0 6 2 9 5 6 8 -8 -21 -71
-45 -95 -26 -28 -40 -31 -15 -3 15 16 17 30 11 75 -7 59 -1 70 14 30z m-3283
-52 c-49 -100 -60 -119 -64 -107 -5 15 75 174 87 174 5 0 -5 -30 -23 -67z
m3427 -8 c4 -41 3 -55 -4 -45 -9 13 -15 119 -6 109 2 -2 6 -31 10 -64z m-2944
44 c0 -6 -12 -9 -28 -8 -34 4 -52 -7 -52 -32 0 -14 7 -19 30 -19 17 0 30 -4
30 -10 0 -5 -13 -10 -30 -10 -31 0 -50 -22 -50 -59 0 -12 -4 -21 -10 -21 -13
0 -13 18 0 72 5 24 12 55 15 71 5 25 9 27 50 27 25 0 45 -5 45 -11z m2722 -24
c-6 -35 -19 -31 -14 5 2 16 8 28 12 25 4 -2 5 -16 2 -30z m369 13 c23 -26 24
-41 3 -59 -15 -12 -16 -11 -9 9 5 18 2 27 -14 38 -12 9 -21 19 -21 25 0 16 22
10 41 -13z m656 -3 c-13 -27 -30 -28 -35 -2 -2 10 5 17 20 20 13 2 24 5 25 6
0 0 -4 -10 -10 -24z m2723 10 c0 -8 -7 -15 -15 -15 -8 0 -15 7 -15 15 0 8 7
15 15 15 8 0 15 -7 15 -15z m-3941 -39 c-11 -12 -29 2 -29 25 0 18 1 18 19 2
10 -10 15 -22 10 -27z m679 27 c2 -7 -3 -13 -12 -13 -20 0 -20 -10 0 -39 16
-22 15 -23 -2 -19 -19 3 -33 41 -26 71 5 20 33 19 40 0z m52 9 c0 -13 -12 -22
-22 -16 -10 6 -1 24 13 24 5 0 9 -4 9 -8z m-990 -12 c0 -5 -6 -10 -14 -10 -8
0 -18 5 -21 10 -3 6 3 10 14 10 12 0 21 -4 21 -10z m1248 -12 c-4 -12 -88 -20
-88 -9 0 14 11 18 51 18 22 0 38 -4 37 -9z m602 -9 c0 -5 -4 -9 -10 -9 -5 0
-10 7 -10 16 0 8 5 12 10 9 6 -3 10 -10 10 -16z m-4434 -3 c28 6 28 6 9 -9
-18 -14 -19 -18 -6 -39 13 -21 13 -22 -3 -9 -14 12 -18 11 -31 -5 -13 -17 -14
-18 -15 -1 0 19 -15 23 -25 7 -3 -5 -11 -10 -17 -10 -6 0 -2 10 10 23 17 18
19 26 9 36 -9 10 -8 11 6 6 11 -5 17 -2 17 6 0 11 2 12 9 1 5 -9 18 -11 37 -6z
m1109 -30 c-3 -17 -9 -53 -12 -79 -5 -43 -4 -49 16 -54 11 -3 21 -10 21 -15 0
-9 -49 -3 -59 8 -3 3 0 35 7 72 6 37 9 78 5 90 -4 18 -2 21 12 16 13 -5 15
-14 10 -38z m-734 8 c-41 -52 -16 -120 29 -79 22 20 26 65 8 83 -15 15 -7 24
11 13 24 -15 24 -74 1 -104 -42 -54 -97 -27 -87 43 6 45 22 70 44 70 11 0 10
-6 -6 -26z m7114 16 c3 -5 1 -10 -4 -10 -6 0 -11 5 -11 10 0 6 2 10 4 10 3 0
8 -4 11 -10z m-6895 -16 c0 -8 -5 -12 -10 -9 -30 18 -70 -28 -70 -80 0 -14 -5
-25 -11 -25 -8 0 -9 18 -4 58 4 31 8 59 10 62 2 3 22 6 44 7 31 2 41 -1 41
-13z m132 -54 c-3 -65 -8 -83 -22 -75 -6 4 -6 15 0 31 6 14 10 39 10 55 0 49
-24 29 -35 -28 -15 -78 -28 -77 -20 2 7 65 6 69 -10 54 -9 -9 -19 -35 -22 -58
-3 -23 -10 -44 -16 -48 -6 -4 -7 11 -3 43 12 83 11 82 69 80 l52 -2 -3 -54z
m3045 41 c14 -23 5 -35 -14 -20 -14 12 -18 39 -5 39 4 0 13 -9 19 -19z m-100
-17 c-9 -9 -28 6 -21 18 4 6 10 6 17 -1 6 -6 8 -13 4 -17z m913 18 c0 -14 -11
-21 -26 -15 -8 3 -11 9 -8 14 7 11 34 12 34 1z m112 -22 c3 -16 1 -30 -4 -30
-4 0 -8 5 -8 11 0 5 -5 7 -12 3 -8 -5 -9 -2 -5 10 4 10 7 22 7 27 0 23 18 6
22 -21z m-3697 -4 c24 -37 12 -52 -40 -48 -45 4 -51 -1 -39 -32 4 -10 18 -16
41 -16 20 0 32 -4 28 -10 -3 -5 -19 -10 -35 -10 -57 0 -76 74 -33 123 23 24
60 21 78 -7z m2905 9 c10 -12 10 -15 -4 -15 -9 0 -16 7 -16 15 0 8 2 15 4 15
2 0 9 -7 16 -15z m1050 -11 c0 -8 -4 -12 -10 -9 -5 3 -10 10 -10 16 0 5 5 9
10 9 6 0 10 -7 10 -16z m-3682 -6 c7 -7 12 -22 12 -35 0 -21 -5 -23 -45 -23
-32 0 -45 -4 -45 -14 0 -21 27 -39 50 -33 11 3 20 1 20 -4 0 -19 -51 -22 -70
-4 -40 36 -12 125 38 125 16 0 33 -5 40 -12z m154 -53 c-2 -27 -8 -56 -13 -65
-6 -10 -7 4 -3 41 4 34 2 59 -4 63 -11 7 -32 -45 -32 -80 0 -13 -4 -26 -10
-29 -6 -4 -8 15 -3 54 4 41 2 61 -5 61 -12 0 -17 -15 -28 -73 -3 -20 -11 -40
-16 -43 -6 -4 -8 1 -5 12 3 11 8 40 12 66 7 51 20 59 80 48 29 -6 30 -8 27
-55z m368 50 c0 -9 10 -20 23 -25 l22 -9 -22 0 c-27 -1 -29 -5 -38 -58 -6 -39
-5 -44 17 -52 23 -10 23 -10 -4 -10 -16 -1 -29 5 -30 12 -5 39 -2 117 5 117 4
0 7 9 7 20 0 11 5 20 10 20 6 0 10 -7 10 -15z m2265 5 c3 -5 -1 -10 -9 -10 -9
0 -16 5 -16 10 0 6 4 10 9 10 6 0 13 -4 16 -10z m-2517 -16 c12 -8 22 -26 22
-40 0 -22 -4 -24 -45 -24 -29 0 -45 -4 -45 -12 0 -24 15 -35 43 -34 15 1 26
-3 24 -9 -3 -9 -63 -8 -79 2 -19 11 -7 81 17 107 28 30 33 31 63 10z m97 -24
c-9 -10 -19 -37 -22 -59 -3 -23 -10 -44 -16 -48 -6 -4 -7 11 -3 43 13 85 16
92 37 87 18 -5 19 -7 4 -23z m2800 20 c3 -5 1 -10 -4 -10 -6 0 -11 5 -11 10 0
6 2 10 4 10 3 0 8 -4 11 -10z m121 -17 c-8 -8 -36 5 -36 17 0 7 6 7 21 0 11
-7 18 -14 15 -17z m646 15 c-9 -9 -15 -9 -24 0 -9 9 -7 12 12 12 19 0 21 -3
12 -12z m3464 -15 c1 -14 -3 -20 -12 -16 -18 7 -19 46 -1 41 6 -3 12 -14 13
-25z m117 5 c7 -26 1 -38 -19 -38 -8 0 -14 10 -14 23 0 40 24 51 33 15z
m-7090 -1 c3 -7 1 -33 -4 -58 -4 -24 -8 -48 -9 -52 0 -5 -4 -6 -9 -3 -4 3 -5
25 -1 48 5 24 4 50 -1 60 -7 13 -6 18 5 18 7 0 16 -6 19 -13z m627 -87 c-47
-98 -75 -126 -34 -34 40 90 65 136 71 130 3 -3 -14 -46 -37 -96z m6394 51
c-20 -21 -26 -8 -13 25 10 27 12 27 19 9 5 -13 3 -25 -6 -34z m121 30 c-3 -6
-11 -11 -17 -11 -6 0 -6 6 2 15 14 17 26 13 15 -4z m-6878 -8 c3 -7 -3 -9 -16
-6 -12 3 -21 10 -21 15 0 13 32 6 37 -9z m6943 8 c0 -6 -4 -13 -10 -16 -5 -3
-10 1 -10 9 0 9 5 16 10 16 6 0 10 -4 10 -9z m-6997 -21 c-4 -14 2 -23 21 -31
14 -7 27 -17 27 -23 3 -22 -3 -41 -14 -48 -18 -11 -65 -9 -72 3 -5 7 3 9 23 6
16 -3 36 -1 43 4 11 7 7 15 -19 37 -33 28 -42 56 -19 65 6 3 13 6 14 6 0 1 -1
-8 -4 -19z m3029 -3 c-24 -11 -38 -5 -28 11 3 6 16 8 28 4 l22 -5 -22 -10z
m243 -7 c3 -5 -1 -10 -9 -10 -9 0 -16 5 -16 10 0 6 4 10 9 10 6 0 13 -4 16
-10z m-2969 -15 c27 3 34 2 24 -5 -13 -8 -13 -13 -2 -31 16 -25 9 -37 -12 -20
-11 9 -15 7 -21 -11 l-8 -23 -4 23 c-2 12 -8 22 -13 22 -4 0 -10 8 -14 18 -3
9 -9 24 -13 32 -5 12 -4 13 9 2 9 -7 31 -10 54 -7z m3109 5 c3 -5 -3 -10 -14
-10 -12 0 -21 5 -21 10 0 6 6 10 14 10 8 0 18 -4 21 -10z m615 -35 c0 -8 -4
-15 -10 -15 -5 0 -10 7 -10 15 0 8 5 15 10 15 6 0 10 -7 10 -15z m4079 -14
c-15 -5 -22 6 -14 19 6 9 10 9 16 -1 5 -8 4 -15 -2 -18z m-3962 -8 c-3 -3 -11
-2 -17 2 -9 6 -9 10 1 16 14 8 27 -7 16 -18z m-5929 -102 c2 -73 5 -84 22 -88
27 -7 25 -33 -2 -33 -45 0 -53 15 -56 100 -3 60 -8 80 -18 80 -8 0 -14 7 -14
16 0 11 8 14 33 12 l32 -3 3 -84z m6657 59 c-5 -8 -11 -8 -21 1 -12 10 -12 14
-2 20 16 10 33 -5 23 -21z m3785 15 c0 -8 -4 -15 -10 -15 -5 0 -10 7 -10 15 0
8 5 15 10 15 6 0 10 -7 10 -15z m110 -1 c0 -8 -4 -12 -10 -9 -5 3 -10 10 -10
16 0 5 5 9 10 9 6 0 10 -7 10 -16z m-10821 -23 c21 -13 6 -41 -18 -34 -31 8
-25 -10 9 -29 32 -18 40 -54 18 -76 -12 -12 -80 -17 -91 -6 -3 3 -3 12 0 20 4
11 14 13 34 9 37 -8 38 9 2 27 -41 20 -50 41 -30 72 18 26 50 34 76 17z m153
-18 c10 -9 18 -29 18 -45 0 -26 -3 -28 -41 -28 -33 0 -40 -3 -37 -17 2 -13 13
-18 38 -18 24 0 35 -5 35 -15 0 -10 -13 -16 -41 -18 -36 -3 -45 1 -64 25 -54
69 29 174 92 116z m533 -2 c3 -10 15 -21 25 -24 27 -7 25 -35 -2 -39 -17 -2
-23 -10 -23 -28 0 -34 13 -60 30 -60 8 0 15 -7 15 -15 0 -20 -44 -20 -64 1
-10 9 -16 33 -16 60 0 30 -5 46 -15 50 -19 8 -20 34 -1 34 7 0 16 9 19 20 7
25 24 26 32 1z m-246 -25 c34 -37 25 -60 -27 -64 -23 -2 -42 -7 -42 -11 0 -18
29 -32 55 -25 23 6 26 4 23 -12 -2 -14 -13 -20 -39 -22 -30 -3 -41 2 -58 24
-27 34 -27 84 -1 112 27 29 61 28 89 -2z m7201 14 c0 -5 -2 -10 -4 -10 -3 0
-8 5 -11 10 -3 6 -1 10 4 10 6 0 11 -4 11 -10z m-7052 -22 c3 -14 -3 -18 -27
-18 -41 0 -59 -32 -36 -66 12 -19 21 -23 41 -18 22 6 25 4 22 -12 -5 -29 -55
-31 -84 -3 -31 29 -33 90 -3 120 25 25 82 23 87 -3z m7292 12 c0 -5 -4 -10
-10 -10 -5 0 -10 5 -10 10 0 6 5 10 10 10 6 0 10 -4 10 -10z m929 -81 c-14
-26 -28 -16 -21 16 3 20 7 23 18 14 10 -8 11 -16 3 -30z m61 9 c0 -26 -16 -55
-25 -47 -8 8 6 69 16 69 5 0 9 -10 9 -22z m58 -6 c2 -13 -3 -25 -13 -28 -21
-9 -24 -4 -18 29 6 32 26 31 31 -1z m56 3 c-7 -17 -20 -20 -28 -6 -7 10 3 21
20 21 8 0 11 -6 8 -15z m56 -10 c0 -8 -4 -15 -10 -15 -5 0 -10 7 -10 15 0 8 5
15 10 15 6 0 10 -7 10 -15z m-8204 -30 c13 -33 -24 -103 -48 -89 -9 6 -2 78 9
97 7 13 33 8 39 -8z m9325 -28 c-1 -4 -1 -14 -1 -22 0 -8 -4 -15 -10 -15 -5 0
-10 12 -10 26 0 14 5 24 11 22 6 -2 10 -7 10 -11z m559 -35 c0 -5 -7 -17 -15
-28 -14 -18 -14 -18 -15 9 0 17 5 27 15 27 8 0 15 -4 15 -8z m90 -17 c0 -8 -4
-15 -10 -15 -5 0 -10 7 -10 15 0 8 5 15 10 15 6 0 10 -7 10 -15z m-10821 -37
c-1 -13 -1 -51 -1 -85 2 -54 5 -62 22 -65 41 -6 19 -23 -35 -26 -42 -2 -55 0
-55 11 0 8 9 17 20 20 15 4 20 14 20 41 0 23 -5 39 -15 42 -8 4 -15 13 -15 20
0 8 7 17 15 20 8 4 15 15 15 25 0 10 7 19 15 19 10 0 15 -8 14 -22z m877 -20
c4 -6 -1 -17 -11 -24 -27 -20 -28 -160 -1 -179 19 -14 14 -35 -9 -35 -24 0
-45 31 -45 67 0 26 -5 36 -20 40 -11 3 -20 11 -20 18 0 7 9 15 20 18 15 4 20
14 20 40 0 51 45 89 66 55z m-329 -17 c3 -11 15 -21 27 -23 28 -4 27 -32 -2
-36 -20 -3 -23 -8 -20 -40 2 -27 9 -40 26 -47 27 -12 24 -29 -7 -33 -36 -6
-51 15 -51 70 0 41 -3 51 -20 55 -11 3 -20 11 -20 18 0 7 9 15 20 18 11 3 20
12 20 21 0 23 21 20 27 -3z m-380 -21 c19 -36 13 -124 -9 -128 -14 -3 -17 6
-20 55 -2 44 -7 58 -18 58 -11 0 -16 -15 -20 -55 -4 -40 -9 -55 -20 -55 -11 0
-16 14 -18 54 -5 88 0 98 50 97 35 -1 45 -6 55 -26z m133 0 c14 -14 20 -34 20
-62 0 -47 -22 -78 -56 -78 -16 0 -24 -7 -26 -22 -2 -13 -11 -24 -20 -26 -16
-3 -18 6 -18 86 0 50 2 97 5 105 9 22 72 20 95 -3z m82 -47 c2 -45 7 -59 20
-61 13 -3 18 7 23 45 9 64 13 75 25 68 5 -3 10 -40 10 -81 l0 -74 -45 0 c-55
0 -65 15 -65 99 0 47 3 61 15 61 10 0 15 -15 17 -57z m208 -217 c0 -7 -9 -16
-21 -19 -23 -6 -17 -27 7 -27 21 0 17 -17 -6 -23 -17 -4 -20 -14 -20 -61 0
-31 -4 -56 -10 -56 -5 0 -10 24 -10 54 0 44 -4 56 -22 69 l-23 16 23 7 c12 3
22 14 22 24 0 10 6 21 13 23 24 10 47 7 47 -7z m380 -41 c0 -9 12 -20 26 -26
28 -10 25 -24 -4 -24 -13 0 -18 -11 -20 -43 -3 -37 0 -43 23 -52 31 -12 25
-31 -8 -23 -38 10 -47 24 -47 74 0 37 -4 49 -15 49 -8 0 -15 5 -15 10 0 6 7
10 15 10 8 0 15 9 15 20 0 11 7 20 15 20 8 0 15 -7 15 -15z m314 9 c23 -9 20
-24 -4 -24 -11 0 -20 -5 -20 -11 0 -6 9 -13 20 -16 11 -3 20 -9 20 -14 0 -5
-9 -9 -20 -9 -18 0 -20 -7 -20 -61 0 -81 -24 -77 -28 4 -2 42 -7 57 -17 57 -8
0 -15 7 -15 15 0 8 7 15 15 15 8 0 15 7 15 15 0 7 8 19 18 24 21 13 17 12 36
5z m-562 -31 c12 -11 18 -30 18 -63 0 -52 -13 -70 -49 -70 -38 0 -61 27 -61
73 0 67 49 99 92 60z m149 -20 c12 -32 8 -118 -6 -118 -5 0 -12 25 -15 55 -4
47 -8 55 -25 55 -17 0 -20 -8 -23 -52 -2 -38 -7 -53 -18 -53 -11 0 -14 15 -14
63 0 35 2 66 5 69 3 2 23 5 45 6 35 2 42 -2 51 -25z m809 12 c0 -8 -4 -15 -10
-15 -5 0 -10 7 -10 15 0 8 5 15 10 15 6 0 10 -7 10 -15z m130 -68 c4 -61 9
-81 23 -88 22 -13 22 -29 -1 -29 -32 0 -42 22 -42 91 0 47 -4 70 -15 79 -22
18 -18 32 8 28 20 -3 22 -9 27 -81z m-385 29 c11 -16 15 -41 13 -72 -3 -47 -4
-49 -36 -51 -19 -2 -42 1 -52 7 -43 23 -21 96 26 87 14 -2 27 -1 29 4 8 12
-25 27 -46 22 -11 -3 -19 -1 -19 4 0 33 64 32 85 -1z m153 -64 c2 -50 -1 -72
-8 -67 -5 3 -10 31 -10 61 0 30 -4 54 -10 54 -5 0 -10 -25 -10 -55 0 -42 -3
-55 -15 -55 -12 0 -15 13 -15 55 0 30 -4 55 -10 55 -5 0 -10 -25 -10 -56 0
-74 -24 -70 -28 6 -5 77 -1 82 60 78 l53 -3 3 -73z m100 9 c3 -43 7 -54 23
-58 36 -10 19 -23 -31 -23 -27 0 -50 5 -50 10 0 6 7 10 15 10 23 0 21 88 -2
107 -16 12 -15 13 12 11 29 -3 30 -5 33 -57z m-516 25 c-1 -6 -26 -9 -54 -7
-55 3 -71 8 -64 19 6 11 121 -2 118 -12z m753 -21 c17 -43 35 -52 35 -16 0 9
6 26 14 37 27 37 28 5 1 -75 -26 -78 -46 -103 -72 -94 -18 6 -16 23 1 23 25 0
27 36 6 89 -11 29 -20 58 -20 66 0 30 19 14 35 -30z m161 37 c29 -20 21 -70
-10 -59 -10 4 -16 18 -16 37 0 30 6 36 26 22z m14 -122 c0 -31 -17 -39 -37
-19 -16 16 -4 49 18 49 14 0 19 -7 19 -30z m-1500 -55 c0 -8 -9 -15 -20 -15
-11 0 -20 -4 -20 -10 0 -5 9 -10 20 -10 11 0 20 -7 20 -15 0 -8 -9 -15 -20
-15 -18 0 -20 -7 -20 -61 0 -43 -4 -59 -12 -57 -8 3 -11 22 -9 55 2 43 -1 53
-18 63 -25 13 -28 30 -6 30 9 0 20 11 25 25 11 28 60 37 60 10z m380 -40 c0
-9 12 -21 28 -27 l27 -12 -27 -4 c-26 -3 -28 -7 -28 -48 0 -39 3 -46 28 -56
l27 -12 -28 -4 c-42 -5 -57 13 -57 69 0 37 -4 49 -15 49 -8 0 -15 7 -15 15 0
8 7 15 15 15 8 0 15 7 15 15 0 8 7 15 15 15 8 0 15 -7 15 -15z m570 -21 c0 -8
-4 -14 -10 -14 -5 0 -10 9 -10 21 0 11 5 17 10 14 6 -3 10 -13 10 -21z m-818
-1 c23 -21 25 -95 2 -117 -34 -35 -90 -9 -94 44 -4 43 0 58 16 74 20 21 53 20
76 -1z m149 -20 c15 -40 11 -113 -6 -113 -11 0 -15 12 -15 48 0 50 -13 74 -36
65 -10 -3 -14 -22 -14 -59 0 -41 -4 -54 -15 -54 -12 0 -15 14 -15 69 0 68 0
70 28 73 43 5 63 -3 73 -29z m907 -1 c2 -16 10 -22 27 -22 32 0 45 -27 45 -89
0 -39 -4 -51 -15 -51 -11 0 -15 13 -15 54 0 89 -39 89 -43 1 -1 -28 -7 -50
-14 -53 -10 -3 -13 20 -13 93 0 73 3 96 13 93 6 -3 13 -14 15 -26z m-572 -19
c10 -50 17 -60 21 -35 5 28 17 28 35 0 15 -23 16 -22 23 20 6 39 14 50 27 36
3 -3 2 -20 -2 -37 -5 -18 -11 -49 -15 -69 -7 -45 -21 -49 -36 -10 l-11 27 -11
-22 c-5 -13 -16 -23 -23 -23 -12 0 -34 78 -34 120 0 30 19 24 26 -7z m214 7
c11 -11 20 -31 20 -45 0 -22 -3 -24 -30 -19 -45 9 -63 -1 -50 -27 9 -17 18
-20 41 -15 22 4 29 2 29 -9 0 -19 -59 -20 -83 -2 -10 6 -20 29 -23 49 -5 30
-2 41 19 62 31 31 50 33 77 6z m518 0 c7 -11 19 -20 27 -20 24 0 17 -18 -7
-22 -20 -3 -23 -9 -23 -43 0 -32 5 -42 23 -50 29 -13 28 -25 -1 -25 -34 0 -47
19 -47 67 0 30 -5 45 -15 49 -8 4 -15 12 -15 20 0 8 7 14 15 14 8 0 15 7 15
15 0 21 13 19 28 -5z m3160 8 c15 -15 15 -43 2 -68 -9 -17 -12 -17 -40 -4 -36
18 -36 23 -9 58 23 29 30 31 47 14z m-3574 -4 c12 -5 16 -20 16 -61 0 -46 3
-56 20 -60 38 -10 20 -24 -27 -21 -46 3 -76 28 -34 28 18 0 21 6 21 40 0 27
-5 43 -15 46 -8 4 -15 12 -15 20 0 15 10 17 34 8z m184 -83 c2 -54 -1 -80 -13
-97 -17 -27 -56 -32 -74 -11 -15 18 -3 29 19 17 13 -7 21 -5 29 4 10 12 6 15
-19 21 -35 8 -50 30 -50 74 0 52 19 72 65 68 l40 -4 3 -72z m-548 43 c12 -13
6 -15 -50 -12 -40 2 -65 8 -68 16 -6 19 102 16 118 -4z m930 -14 c0 -16 -4
-30 -9 -30 -22 0 -41 13 -41 29 0 23 9 31 32 31 13 0 18 -8 18 -30z m3888 -14
c6 -49 -3 -58 -40 -38 -18 9 -35 19 -38 20 -8 6 54 52 65 49 6 -2 11 -16 13
-31z m-2818 -21 c13 -16 10 -47 -5 -52 -21 -7 -45 21 -39 45 7 25 26 29 44 7z
m-1072 -58 c3 -22 -1 -27 -18 -27 -23 0 -35 22 -26 46 10 25 41 12 44 -19z
m5222 -17 c0 -11 -4 -20 -10 -20 -5 0 -10 9 -10 20 0 11 5 20 10 20 6 0 10 -9
10 -20z m-4152 -12 c27 -27 2 -95 -31 -82 -10 4 -17 17 -17 34 0 55 21 75 48
48z m5552 -8 c0 -25 -27 -37 -43 -21 -9 10 -8 16 7 27 27 19 36 18 36 -6z
m-8120 -25 c0 -8 -9 -15 -20 -15 -11 0 -20 -4 -20 -10 0 -5 9 -10 20 -10 11 0
20 -7 20 -15 0 -8 -9 -15 -20 -15 -18 0 -20 -7 -20 -61 0 -44 -3 -60 -12 -56
-9 2 -13 23 -12 60 1 47 -2 58 -17 62 -23 8 -25 25 -4 25 9 0 20 11 25 25 11
28 60 37 60 10z m377 -35 c3 -11 14 -20 24 -20 11 0 19 -7 19 -15 0 -8 -9 -15
-20 -15 -17 0 -20 -7 -20 -45 0 -38 3 -45 20 -45 11 0 20 -7 20 -15 0 -17 -23
-20 -51 -5 -15 8 -19 21 -19 59 0 34 -5 51 -15 55 -8 3 -15 10 -15 16 0 5 7
10 15 10 8 0 15 9 15 20 0 11 5 20 11 20 6 0 13 -9 16 -20z m-239 -27 c6 -9
12 -36 12 -59 0 -33 -5 -46 -22 -58 -29 -20 -41 -20 -67 2 -28 22 -32 94 -6
122 20 22 63 18 83 -7z m652 12 c0 -9 11 -20 25 -25 14 -5 25 -14 25 -20 0 -5
-11 -10 -25 -10 -23 0 -25 -4 -25 -40 0 -34 4 -42 25 -50 31 -12 33 -30 2 -30
-35 0 -47 19 -47 71 0 39 -4 49 -20 54 -11 3 -20 10 -20 15 0 4 9 10 20 13 11
3 20 12 20 21 0 9 5 16 10 16 6 0 10 -7 10 -15z m288 -68 c2 -64 6 -79 22 -90
24 -15 26 -27 3 -27 -37 0 -53 30 -53 100 0 51 -4 69 -15 74 -26 9 -16 27 13
24 27 -3 27 -4 30 -81z m-801 43 c16 -31 13 -112 -4 -118 -9 -2 -13 11 -13 45
0 56 -11 78 -34 70 -12 -5 -16 -20 -16 -63 0 -40 -3 -55 -12 -52 -9 3 -14 30
-16 75 l-3 70 43 -1 c35 -1 45 -6 55 -26z m411 -2 c20 -20 14 -28 -18 -21 -41
8 -41 -21 1 -36 27 -9 30 -14 27 -43 -3 -31 -5 -33 -43 -33 -31 0 -41 4 -43
18 -3 16 -1 17 16 8 28 -15 42 -14 42 3 0 8 -12 21 -27 28 -48 23 -39 88 11
88 12 0 27 -5 34 -12z m220 -33 c7 -14 12 -32 12 -40 0 -28 17 -15 33 25 8 22
20 40 26 40 15 0 14 -7 -14 -90 -28 -83 -40 -100 -66 -100 -24 0 -24 8 1 28
l21 17 -25 73 c-18 52 -21 72 -12 72 7 0 18 -11 24 -25z m-2137 -8 c-10 -9
-11 -8 -5 6 3 10 9 15 12 12 3 -3 0 -11 -7 -18z m2466 15 c15 -9 34 -58 26
-66 -4 -3 -24 -6 -45 -6 -32 0 -39 -3 -36 -17 2 -13 13 -18 38 -19 46 0 48
-28 3 -32 -43 -4 -73 26 -73 75 0 57 46 91 87 65z m118 -27 c0 -33 -21 -41
-38 -14 -14 22 -1 51 20 47 13 -2 18 -13 18 -33z m-785 0 c0 -17 -8 -18 -74
-9 -66 9 -57 24 14 24 47 0 60 -3 60 -15z m1860 -30 c17 -20 8 -50 -15 -50
-20 0 -31 25 -21 51 7 18 20 18 36 -1z m-1072 -54 c4 -29 -9 -44 -31 -35 -17
6 -23 44 -10 58 14 14 38 0 41 -23z m1071 -30 c33 -21 4 -99 -32 -85 -19 7
-22 31 -7 68 10 28 17 31 39 17z m-2479 -31 c13 -13 20 -33 20 -56 0 -27 5
-37 20 -41 24 -6 27 -30 3 -35 -10 -2 -20 -20 -27 -48 -9 -38 -15 -45 -38 -48
-31 -4 -37 14 -12 33 25 17 23 154 -1 171 -18 13 -14 44 5 44 5 0 19 -9 30
-20z m-540 -300 c0 -11 -6 -20 -13 -20 -19 0 -27 10 -20 26 8 21 33 17 33 -6z
m574 -50 c9 0 16 -8 16 -20 0 -13 -7 -20 -20 -20 -17 0 -20 -7 -20 -41 0 -32
4 -42 20 -46 11 -3 20 -12 20 -20 0 -12 -7 -14 -32 -9 -40 8 -48 20 -48 72 0
28 -5 44 -15 48 -19 7 -20 36 -1 36 7 0 17 10 20 23 l6 22 19 -22 c11 -13 26
-23 35 -23z m691 3 c-11 -39 -11 -142 -1 -175 13 -44 -20 -36 -39 8 -29 69 -9
194 31 194 13 0 15 -5 9 -27z m155 12 c10 -12 9 -16 -4 -21 -22 -9 -23 -155
-1 -174 23 -19 18 -30 -15 -30 l-30 0 0 120 c0 111 1 120 19 120 10 0 24 -7
31 -15z m-1420 -55 c0 -53 2 -60 20 -60 11 0 20 -7 20 -15 0 -11 -13 -15 -54
-15 -56 0 -85 17 -47 27 17 4 21 13 21 49 0 32 -4 44 -15 44 -16 0 -20 12 -8
23 3 4 19 7 35 7 28 0 28 -1 28 -60z m155 44 c21 -22 22 -144 0 -144 -12 0
-15 13 -15 55 0 41 -4 57 -15 62 -23 8 -29 -2 -35 -58 -3 -27 -9 -51 -15 -52
-10 -2 -20 116 -11 138 6 17 73 17 91 -1z m151 -19 c12 -18 15 -38 11 -66 -6
-49 -18 -63 -55 -64 -22 -1 -28 -7 -30 -29 -2 -15 -9 -25 -15 -23 -8 2 -13 38
-15 105 l-3 102 45 0 c38 0 48 -4 62 -25z m76 -45 c2 -41 7 -55 18 -55 11 0
16 15 20 55 4 40 9 55 20 55 12 0 15 -14 15 -70 l0 -70 -45 -3 c-56 -4 -70 13
-70 83 0 49 16 83 31 68 5 -5 9 -33 11 -63z m318 20 c0 -23 -4 -30 -20 -30
-11 0 -23 7 -26 15 -9 23 3 45 26 45 16 0 20 -7 20 -30z m2855 -53 c3 -12 5
-60 3 -106 -2 -67 -7 -86 -20 -95 -24 -14 -54 14 -43 41 13 32 16 112 6 150
-8 27 -7 39 1 44 17 11 47 -8 53 -34z m131 -23 c17 -46 16 -105 -4 -156 -10
-24 -14 -25 -35 -15 -22 10 -23 12 -10 61 9 35 10 60 3 85 -12 42 -4 82 15 74
8 -2 22 -25 31 -49z m-4455 23 c-10 -9 -11 -8 -5 6 3 10 9 15 12 12 3 -3 0
-11 -7 -18z m2897 -10 c3 -16 -3 -18 -60 -15 -51 2 -63 6 -66 21 -3 16 3 18
60 15 51 -2 63 -6 66 -21z m2347 -105 c0 -63 -4 -116 -8 -119 -4 -3 -19 3 -32
11 -23 15 -25 23 -25 90 0 93 15 138 43 134 20 -3 21 -9 22 -116z m-3775 78
c0 -23 -4 -30 -20 -30 -23 0 -35 22 -26 45 3 8 15 15 26 15 16 0 20 -7 20 -30z
m3635 -22 c-9 -38 -9 -88 0 -126 6 -29 5 -31 -21 -28 -35 4 -46 26 -46 96 -1
74 22 116 53 99 16 -8 19 -16 14 -41z m-527 10 c14 -14 16 -45 2 -53 -15 -9
-50 14 -50 34 0 31 25 42 48 19z m-1680 -20 c3 -15 -4 -18 -46 -18 -60 0 -82
7 -82 27 0 11 13 13 62 11 50 -2 63 -6 66 -20z m3957 -32 c14 -33 18 -155 6
-175 -4 -6 -19 -4 -41 6 -47 22 -47 23 -27 34 19 11 24 73 7 84 -16 10 -12 22
10 28 14 3 20 14 20 31 0 35 8 33 25 -8z m139 -71 c11 -67 -19 -116 -50 -85
-7 7 -6 36 5 91 13 72 16 78 27 57 6 -13 15 -41 18 -63z m-1114 60 c0 -8 -6
-15 -12 -15 -7 0 -2 -9 11 -19 24 -19 22 -41 -5 -41 -8 0 -17 -7 -20 -15 -7
-17 -44 -21 -44 -4 0 6 -10 19 -22 28 -23 19 -18 41 10 41 12 0 13 3 4 12 -21
21 -13 28 33 28 33 0 45 -4 45 -15z m-1290 -56 c0 -21 -19 -29 -42 -17 -21 10
-23 39 -6 56 15 15 48 -12 48 -39z m-3868 6 c2 -13 12 -21 31 -23 38 -5 61
-43 54 -89 -9 -54 -33 -74 -80 -66 l-37 6 0 97 c0 53 3 100 7 104 9 9 20 -4
25 -29z m308 -14 c0 -12 8 -21 22 -23 31 -4 34 -26 4 -34 -22 -5 -26 -12 -26
-40 0 -28 5 -36 25 -44 36 -14 31 -30 -10 -30 -41 0 -55 20 -55 79 0 30 -4 41
-15 41 -8 0 -15 7 -15 15 0 8 6 15 14 15 8 0 18 9 21 20 8 26 35 26 35 1z
m757 3 c2 -6 -5 -14 -17 -17 -16 -4 -20 -14 -21 -49 -2 -89 2 -113 22 -127 29
-20 23 -33 -13 -29 -31 3 -33 6 -36 46 -2 29 -9 45 -20 49 -28 11 -32 26 -9
38 16 8 23 21 25 50 2 22 9 43 15 47 16 11 50 6 54 -8z m-610 -7 c4 -8 16 -16
26 -20 23 -9 22 -37 -2 -37 -12 0 -20 -9 -23 -23 -6 -32 8 -67 27 -67 8 0 15
-7 15 -15 0 -18 -50 -21 -68 -3 -7 7 -12 33 -12 59 0 32 -5 49 -15 53 -8 3
-15 12 -15 21 0 8 7 15 15 15 8 0 15 7 15 15 0 19 26 20 37 2z m-317 -61 c0
-34 5 -58 14 -65 21 -17 36 15 36 74 0 33 4 45 13 43 8 -3 13 -31 15 -81 l3
-77 -44 0 c-23 0 -48 5 -55 12 -7 7 -12 40 -12 80 0 54 3 68 15 68 11 0 15
-13 15 -54z m496 9 c18 -27 15 -98 -5 -118 -17 -17 -72 -12 -87 8 -19 26 -18
100 2 119 24 25 71 20 90 -9z m139 2 c9 -13 15 -44 15 -80 0 -50 -2 -58 -17
-55 -14 2 -19 15 -21 61 -3 49 -6 58 -20 55 -13 -2 -18 -17 -22 -58 -7 -80
-25 -67 -28 20 l-3 76 40 1 c31 2 44 -3 56 -20z m5605 -52 c0 -41 -5 -43 -31
-12 -27 32 -23 39 24 46 4 0 7 -15 7 -34z m-5392 -213 c2 -16 10 -22 27 -22
31 0 55 -35 55 -80 -1 -52 -20 -72 -67 -68 l-38 3 -3 98 c-2 77 0 98 10 95 7
-3 14 -14 16 -26z m142 -27 c0 -49 8 -56 28 -25 7 11 19 20 27 20 20 0 19 -9
-2 -33 -17 -18 -16 -21 5 -57 12 -22 22 -44 22 -50 0 -18 -34 6 -50 34 -18 34
-30 33 -30 -4 0 -20 -5 -30 -15 -30 -12 0 -15 17 -15 95 0 78 3 95 15 95 11 0
15 -12 15 -45z m180 19 c0 -16 -16 -19 -25 -4 -8 13 4 32 16 25 5 -4 9 -13 9
-21z m117 -14 c3 -11 14 -20 25 -20 11 0 18 -5 16 -12 -3 -7 -11 -13 -19 -13
-9 0 -15 -14 -17 -43 -3 -38 0 -43 25 -54 l28 -12 -28 -4 c-40 -5 -57 13 -57
64 0 30 -5 46 -17 54 -17 10 -17 10 0 20 9 6 17 18 17 25 0 22 21 18 27 -5z
m-743 -2 c3 -7 8 -26 12 -43 5 -21 8 -25 11 -12 6 25 34 21 41 -5 5 -20 7 -18
17 16 12 41 36 62 34 29 -2 -41 -25 -117 -36 -121 -7 -2 -18 9 -24 25 l-12 28
-6 -25 c-12 -43 -34 -29 -47 30 -7 30 -13 63 -14 73 0 19 19 23 24 5z m-1323
-21 c-10 -9 -11 -8 -5 6 3 10 9 15 12 12 3 -3 0 -11 -7 -18z m1553 1 c29 -42
21 -58 -29 -58 -25 0 -45 -4 -45 -9 0 -18 30 -33 56 -27 21 6 25 4 22 -11 -5
-27 -62 -29 -87 -4 -26 26 -28 92 -5 115 23 24 70 20 88 -6z m380 6 c12 -5 16
-20 16 -59 0 -45 3 -55 20 -60 36 -12 21 -25 -29 -25 -52 0 -79 17 -42 27 17
4 21 13 21 49 0 32 -4 44 -15 44 -16 0 -20 12 -8 23 8 9 17 9 37 1z m434 -20
c19 -13 22 -24 22 -75 l0 -59 -45 0 c-38 0 -47 4 -56 24 -16 35 3 66 42 66 37
0 35 24 -2 26 -42 2 -45 4 -25 19 25 19 36 19 64 -1z m156 -16 c33 -47 12
-119 -35 -123 -16 -1 -25 -9 -27 -23 -2 -12 -10 -22 -18 -22 -11 0 -14 19 -14
95 l0 95 39 0 c30 0 44 -6 55 -22z m124 6 c16 -11 22 -25 22 -55 0 -56 -15
-79 -50 -79 -26 0 -30 -4 -30 -26 0 -16 -5 -24 -12 -22 -9 3 -14 33 -16 91 -3
83 -2 88 20 97 33 13 41 12 66 -6z m-1360 -11 c3 -10 -13 -13 -57 -13 -56 0
-79 9 -64 24 12 12 116 2 121 -11z m1507 1 c9 -9 15 -26 13 -38 -2 -17 -10
-21 -38 -21 -28 0 -35 -4 -35 -20 0 -15 8 -21 33 -23 35 -4 42 -17 13 -27 -58
-18 -106 51 -78 110 19 38 63 47 92 19z m126 -5 c16 -16 19 -30 17 -72 l-3
-52 -44 0 c-50 0 -68 17 -57 58 5 20 13 26 39 29 42 4 42 22 0 26 -18 2 -33 7
-33 11 0 28 53 28 81 0z m-2999 -21 c-8 -8 -9 -4 -5 13 4 13 8 18 11 10 2 -7
-1 -18 -6 -23z m3158 17 c0 -8 -8 -15 -19 -15 -26 0 -39 -19 -43 -65 -2 -22
-7 -40 -13 -40 -11 0 -20 99 -11 121 8 20 86 19 86 -1z m114 -7 c9 -13 16 -43
16 -69 0 -46 -1 -46 -36 -52 -52 -9 -76 7 -72 46 2 26 9 34 36 42 38 11 42 25
8 25 -26 0 -40 12 -29 24 15 15 63 5 77 -16z m146 -58 c0 -46 -3 -60 -14 -60
-11 0 -14 11 -13 40 3 48 -5 65 -27 57 -11 -5 -16 -19 -16 -52 0 -34 -4 -45
-15 -45 -13 0 -15 11 -13 62 3 61 4 63 33 69 52 10 65 -4 65 -71z m128 53 c2
-8 -6 -13 -22 -13 -48 0 -56 -74 -9 -86 13 -4 22 -11 20 -18 -6 -19 -33 -18
-58 3 -31 25 -34 96 -4 117 23 17 67 15 73 -3z m120 0 c12 -10 22 -27 24 -38
2 -17 -3 -21 -35 -23 -30 -3 -37 -7 -35 -20 2 -10 15 -18 31 -20 35 -4 30 -26
-6 -30 -52 -6 -84 57 -56 111 22 41 45 47 77 20z m109 9 c7 -4 14 -19 15 -32
3 -21 -1 -25 -22 -25 -25 0 -37 22 -26 51 6 16 15 17 33 6z m-1429 -19 c2 -9
-11 -13 -46 -13 -57 0 -85 8 -76 22 9 13 117 5 122 -9z m2232 -23 c14 -26 5
-40 -25 -40 -29 0 -39 13 -30 40 8 26 41 26 55 0z m-796 -61 c19 -27 10 -51
-18 -47 -21 3 -32 28 -22 54 8 20 22 17 40 -7z m791 -23 c12 -18 13 -30 6 -50
-11 -28 -14 -29 -49 -20 -20 6 -22 11 -16 38 12 58 34 70 59 32z m-3274 -26
c14 -8 19 -21 19 -50 0 -30 6 -42 28 -58 l27 -21 -27 -10 c-23 -9 -28 -17 -28
-45 0 -37 -19 -60 -46 -54 -22 4 -31 28 -11 28 21 0 30 33 29 104 -1 42 -6 64
-16 72 -18 13 -22 44 -5 44 6 0 19 -5 30 -10z m-1301 -95 c0 -8 -4 -15 -10
-15 -5 0 -7 7 -4 15 4 8 8 15 10 15 2 0 4 -7 4 -15z m77 -20 c-7 -14 -16 -25
-20 -25 -8 0 -2 14 16 38 15 19 16 14 4 -13z m169 -3 c-17 -16 -18 -16 -5 5 7
12 15 20 18 17 3 -2 -3 -12 -13 -22z m-119 -34 c-3 -8 -6 -5 -6 6 -1 11 2 17
5 13 3 -3 4 -12 1 -19z m-126 -11 c-10 -9 -11 -8 -5 6 3 10 9 15 12 12 3 -3 0
-11 -7 -18z m213 -2 c-4 -8 -11 -15 -16 -15 -6 0 -5 6 2 15 7 8 14 15 16 15 2
0 1 -7 -2 -15z m552 -156 c1 -13 2 -52 3 -86 1 -57 3 -63 22 -63 12 0 19 -5
17 -12 -3 -8 -24 -13 -58 -13 -34 0 -55 5 -57 13 -3 7 4 12 16 12 18 0 21 6
21 45 0 33 -4 45 -15 45 -22 0 -18 31 5 37 11 3 17 9 14 15 -9 14 5 40 19 35
6 -2 12 -15 13 -28z m1258 -57 c-16 -52 -12 -93 12 -156 12 -31 -25 -17 -43
17 -30 57 -18 174 21 199 21 14 25 -8 10 -60z m-717 38 c3 -13 14 -20 29 -20
31 0 32 -27 2 -32 -19 -2 -24 -10 -26 -41 -3 -32 0 -38 22 -47 39 -14 32 -32
-11 -28 l-38 3 -3 56 c-2 47 -6 58 -22 62 -26 7 -26 27 0 27 13 0 20 7 20 20
0 11 5 20 11 20 6 0 13 -9 16 -20z m883 5 c0 -8 -4 -15 -10 -15 -6 0 -10 -35
-10 -84 0 -47 5 -88 10 -91 20 -12 9 -25 -20 -25 l-30 0 0 115 0 115 30 0 c20
0 30 -5 30 -15z m-1262 -27 c7 -7 12 -39 12 -76 0 -55 -2 -63 -17 -60 -14 3
-17 12 -15 43 4 48 -21 90 -38 65 -5 -8 -10 -36 -10 -62 0 -36 -4 -48 -15 -48
-12 0 -15 15 -15 75 l0 75 43 0 c24 0 48 -5 55 -12z m136 -4 c24 -23 21 -106
-3 -128 -12 -11 -27 -15 -40 -11 -16 5 -20 1 -23 -21 -2 -15 -9 -29 -15 -32
-10 -3 -13 22 -13 102 l0 106 39 0 c23 0 46 -7 55 -16z m81 -3 c3 -11 5 -35 3
-55 -3 -48 17 -69 32 -32 5 15 10 43 10 62 0 24 5 34 15 34 12 0 15 -15 15
-75 l0 -75 -45 0 c-34 0 -47 5 -55 19 -11 22 -14 124 -3 134 11 12 21 8 28
-12z m323 -24 c3 -23 0 -27 -22 -27 -21 0 -26 5 -26 23 0 13 3 27 7 31 15 14
38 0 41 -27z m2840 11 c19 -19 16 -202 -4 -219 -11 -9 -20 -10 -31 -3 -13 8
-16 32 -17 122 -1 107 0 112 20 112 11 0 25 -5 32 -12z m-4317 -21 c-10 -9
-11 -8 -5 6 3 10 9 15 12 12 3 -3 0 -11 -7 -18z m4455 -12 c18 -44 18 -106 -1
-151 -12 -30 -18 -34 -37 -28 -31 9 -31 9 -18 34 7 12 11 52 10 89 -4 86 -3
91 16 91 8 0 22 -16 30 -35z m785 8 c1 -10 1 -61 2 -113 0 -87 -2 -95 -19 -96
-37 -1 -44 16 -44 97 0 43 4 89 10 103 11 30 49 36 51 9z m-2336 -25 c18 -16
-17 -27 -69 -21 -56 6 -72 15 -61 33 8 13 114 4 130 -12z m2203 7 c1 -1 -1
-21 -7 -44 -5 -24 -5 -57 0 -79 13 -56 12 -59 -21 -54 -23 3 -32 12 -41 39
-13 39 -6 118 12 140 10 11 43 10 57 -2z m-5028 -5 c0 -5 -5 -10 -11 -10 -5 0
-7 5 -4 10 3 6 8 10 11 10 2 0 4 -4 4 -10z m-68 -32 c-8 -8 -9 -4 -5 13 4 13
8 18 11 10 2 -7 -1 -18 -6 -23z m128 22 c0 -5 -5 -10 -11 -10 -5 0 -7 5 -4 10
3 6 8 10 11 10 2 0 4 -4 4 -10z m4440 -15 c14 -17 7 -45 -13 -45 -7 0 -22 6
-32 14 -16 12 -17 16 -6 30 17 20 35 20 51 1z m2280 -101 c0 -91 -7 -101 -52
-75 -31 18 -35 29 -13 37 9 4 15 19 15 40 0 24 -5 34 -15 34 -8 0 -15 7 -15
15 0 8 7 15 15 15 9 0 20 12 26 28 10 26 11 26 25 8 9 -13 14 -47 14 -102z
m-5382 73 c3 -23 0 -27 -22 -27 -21 0 -26 5 -26 23 0 13 3 27 7 31 15 14 38 0
41 -27z m1422 -2 c17 -20 -3 -27 -71 -23 -42 2 -55 7 -57 21 -3 15 5 17 56 17
41 0 63 -5 72 -15z m4084 -7 c8 -30 8 -112 0 -132 -10 -25 -25 -7 -18 21 5 18
4 24 -5 19 -6 -4 -9 -11 -6 -16 3 -5 1 -11 -5 -15 -6 -4 -10 11 -10 39 0 25 4
46 9 46 5 0 9 6 8 13 -2 49 16 65 27 25z m-1109 3 c3 -5 0 -13 -6 -16 -6 -5
-3 -13 11 -22 l22 -15 -32 -29 c-17 -16 -33 -29 -36 -29 -3 0 -21 16 -41 35
-36 35 -36 36 -14 42 16 4 21 11 18 24 -4 16 1 19 33 19 22 0 41 -4 45 -9z
m-1295 -52 c15 -26 6 -49 -18 -49 -30 0 -46 24 -32 49 14 27 36 27 50 0z
m-3820 -84 c0 -8 8 -15 18 -15 10 0 21 -3 25 -6 11 -11 -5 -34 -24 -34 -15 0
-19 -7 -19 -38 0 -32 4 -40 28 -49 l27 -10 -25 -11 c-39 -16 -64 6 -68 59 -2
25 -10 47 -18 52 -19 11 -18 37 1 37 8 0 15 7 15 15 0 8 9 15 20 15 11 0 20
-7 20 -15z m6338 -21 c-4 -24 -24 -29 -32 -8 -8 20 13 49 27 35 5 -5 7 -17 5
-27z m-5918 12 c0 -8 10 -16 23 -18 12 -2 22 -10 22 -18 0 -8 -10 -16 -22 -18
-19 -3 -23 -10 -23 -38 0 -28 5 -36 25 -44 38 -15 31 -32 -12 -28 l-38 3 -3
51 c-2 42 -7 53 -22 57 -26 7 -26 27 0 34 11 3 20 12 20 19 0 8 7 14 15 14 8
0 15 -6 15 -14z m-252 -22 c14 -10 22 -25 22 -45 0 -27 -2 -29 -41 -29 -33 0
-40 -3 -37 -17 3 -14 12 -17 42 -16 31 2 37 -1 34 -15 -2 -12 -15 -18 -45 -20
-50 -4 -73 22 -73 80 0 65 49 96 98 62z m90 -15 l14 -21 14 21 c16 22 44 29
44 11 0 -6 -7 -22 -17 -36 -15 -24 -15 -27 6 -65 22 -38 22 -39 3 -39 -11 0
-27 10 -35 23 l-16 22 -16 -22 c-17 -24 -45 -31 -45 -12 0 6 9 23 19 38 20 27
20 28 0 57 -10 16 -19 32 -19 37 0 16 36 6 48 -14z m334 4 c14 -12 18 -31 18
-77 l0 -62 -45 -2 c-64 -2 -91 30 -65 79 7 12 21 19 40 19 17 0 30 5 30 10 0
6 -16 10 -35 10 -24 0 -35 5 -35 14 0 28 64 35 92 9z m172 -8 c6 -17 -7 -27
-26 -20 -22 9 -36 -15 -40 -65 -2 -32 -7 -45 -18 -45 -12 0 -16 16 -18 71 l-3
71 50 1 c34 1 51 -3 55 -13z m120 -7 c29 -42 21 -58 -29 -58 -33 0 -45 -4 -45
-15 0 -21 32 -35 53 -24 13 8 19 6 23 -6 9 -22 1 -27 -42 -28 -45 -1 -74 29
-74 79 0 66 80 102 114 52z m128 10 c16 -13 21 -41 19 -104 -1 -28 -5 -33 -36
-38 -59 -11 -92 22 -74 72 7 17 16 22 44 22 22 0 34 4 30 10 -3 6 -19 10 -36
10 -27 0 -39 17 -22 33 11 11 58 8 75 -5z m-1771 -31 c-10 -9 -11 -8 -5 6 3
10 9 15 12 12 3 -3 0 -11 -7 -18z m227 3 c-7 -10 -14 -17 -17 -15 -4 4 18 35
25 35 2 0 -1 -9 -8 -20z m-91 -22 c-3 -7 -5 -2 -5 12 0 14 2 19 5 13 2 -7 2
-19 0 -25z m125 -20 c-6 -6 -7 0 -4 19 5 21 7 23 10 9 2 -10 0 -22 -6 -28z
m-189 7 c-3 -9 -8 -14 -10 -11 -3 3 -2 9 2 15 9 16 15 13 8 -4z m-62 -28 c-10
-9 -11 -8 -5 6 3 10 9 15 12 12 3 -3 0 -11 -7 -18z m1886 -13 c8 -22 -23 -84
-43 -84 -14 0 -15 7 -10 38 3 20 6 43 6 50 0 18 40 15 47 -4z m-849 -201 c2
-71 5 -83 22 -88 29 -9 25 -35 -4 -35 -39 0 -56 35 -56 112 0 54 -3 68 -15 68
-8 0 -15 7 -15 16 0 11 8 14 33 12 l32 -3 3 -82z m742 73 c0 -8 -7 -16 -15
-20 -9 -3 -15 -18 -15 -40 0 -19 -5 -38 -10 -41 -7 -4 -7 -12 0 -25 5 -10 10
-30 10 -43 0 -14 7 -27 15 -31 23 -8 18 -26 -8 -26 -32 0 -47 18 -47 57 0 22
-6 36 -20 43 -11 6 -20 15 -20 19 0 5 9 11 20 14 16 4 20 14 20 46 0 28 5 43
18 50 25 15 52 13 52 -3z m-330 -30 c0 -8 10 -16 23 -18 12 -2 22 -10 22 -18
0 -8 -10 -16 -22 -18 -19 -3 -23 -10 -23 -38 0 -27 5 -37 25 -46 37 -17 30
-30 -12 -26 l-38 3 -3 51 c-2 42 -7 53 -22 57 -26 7 -26 27 0 34 11 3 20 12
20 19 0 8 7 14 15 14 8 0 15 -6 15 -14z m-665 -26 c0 -9 -9 -15 -25 -15 -29 0
-39 -18 -13 -24 30 -5 43 -22 43 -52 0 -22 -6 -32 -26 -39 -35 -14 -74 -2 -74
21 0 16 5 18 24 13 42 -10 53 7 15 25 -37 17 -49 51 -28 77 16 20 84 15 84 -6z
m137 3 c10 -9 18 -29 18 -46 0 -29 -1 -29 -38 -23 -46 7 -58 -1 -36 -25 12
-13 25 -16 45 -12 22 4 29 2 29 -10 0 -14 -28 -27 -62 -27 -50 0 -77 88 -42
138 18 26 60 29 86 5z m292 -15 c29 -42 21 -58 -29 -58 -32 0 -45 -4 -45 -14
0 -18 33 -30 60 -21 16 5 20 2 20 -14 0 -18 -6 -21 -38 -21 -50 0 -71 17 -79
62 -8 53 16 88 62 88 24 0 39 -7 49 -22z m144 -2 c3 -15 0 -18 -21 -12 -25 6
-57 -14 -57 -35 0 -28 23 -50 48 -47 19 2 28 -2 30 -14 3 -18 -17 -24 -58 -18
-47 6 -67 81 -34 128 21 30 87 28 92 -2z m-1277 -29 c-10 -9 -11 -8 -5 6 3 10
9 15 12 12 3 -3 0 -11 -7 -18z m-88 -2 c-3 -9 -8 -14 -10 -11 -3 3 -2 9 2 15
9 16 15 13 8 -4z m9 -57 c-8 -8 -9 -4 -5 13 4 13 8 18 11 10 2 -7 -1 -18 -6
-23z m68 28 c0 -3 -4 -8 -10 -11 -5 -3 -10 -1 -10 4 0 6 5 11 10 11 6 0 10 -2
10 -4z m197 -18 c-3 -8 -6 -5 -6 6 -1 11 2 17 5 13 3 -3 4 -12 1 -19z m1471
-234 c2 -72 5 -83 22 -87 28 -7 25 -27 -5 -27 -33 0 -45 27 -45 104 0 52 -3
66 -15 66 -8 0 -15 7 -15 16 0 11 8 14 28 12 27 -3 27 -4 30 -84z m142 61 c0
-8 -4 -15 -10 -15 -5 0 -10 7 -10 15 0 8 5 15 10 15 6 0 10 -7 10 -15z m-290
-10 c0 -8 9 -15 20 -15 11 0 20 -7 20 -15 0 -8 -9 -15 -20 -15 -17 0 -20 -7
-20 -45 0 -38 3 -45 20 -45 11 0 20 -7 20 -15 0 -18 -41 -20 -58 -3 -7 7 -12
34 -12 60 0 35 -4 48 -14 48 -24 0 -30 21 -7 27 12 3 21 12 21 19 0 8 7 14 15
14 8 0 15 -7 15 -15z m-1385 -32 c-4 -10 -8 -23 -9 -30 -3 -17 -16 -29 -16
-15 0 17 19 62 26 62 3 0 3 -8 -1 -17z m1139 1 c19 -19 21 -83 3 -108 -19 -26
-62 -28 -84 -4 -21 23 -24 88 -4 112 17 20 65 21 85 0z m76 -28 c0 -53 8 -76
25 -76 17 0 25 23 25 77 0 31 4 43 13 41 8 -3 12 -27 12 -73 l0 -68 -35 -2
c-51 -5 -70 17 -70 80 0 28 3 55 7 58 15 16 23 4 23 -37z m460 -22 c0 -47 3
-57 20 -61 37 -10 20 -23 -29 -23 -51 0 -79 16 -39 22 34 5 38 71 6 98 l-23
19 33 1 32 0 0 -56z m170 30 c16 -41 13 -114 -5 -114 -11 0 -15 11 -15 43 0
50 -12 72 -34 64 -12 -5 -16 -20 -16 -57 0 -38 -4 -50 -15 -50 -12 0 -15 14
-15 70 l0 70 45 0 c40 0 47 -3 55 -26z m136 1 c24 -37 12 -55 -36 -55 -22 0
-40 -4 -40 -9 0 -18 30 -33 55 -27 18 5 25 2 25 -8 0 -23 -57 -30 -85 -12 -20
13 -25 25 -25 58 0 50 22 78 61 78 19 0 34 -8 45 -25z m114 -6 c0 -26 -3 -30
-22 -27 -17 2 -24 11 -26 31 -3 23 0 27 22 27 22 0 26 -4 26 -31z m815 -9 c0
-18 -6 -26 -23 -28 -13 -2 -25 3 -28 12 -10 26 4 48 28 44 17 -2 23 -10 23
-28z m-3119 -6 c-4 -9 -9 -15 -11 -12 -3 3 -3 13 1 22 4 9 9 15 11 12 3 -3 3
-13 -1 -22z m85 3 c-10 -9 -11 -8 -5 6 3 10 9 15 12 12 3 -3 0 -11 -7 -18z
m-18 -32 c-3 -9 -8 -14 -10 -11 -3 3 -2 9 2 15 9 16 15 13 8 -4z m-53 -15 c0
-11 -4 -20 -9 -20 -5 0 -7 9 -4 20 3 11 7 20 9 20 2 0 4 -9 4 -20z m185 10 c3
-5 1 -10 -4 -10 -6 0 -11 5 -11 10 0 6 2 10 4 10 3 0 8 -4 11 -10z m-65 -10
c0 -5 -2 -10 -4 -10 -3 0 -8 5 -11 10 -3 6 -1 10 4 10 6 0 11 -4 11 -10z
m2168 -33 c3 -25 0 -28 -20 -25 -17 2 -24 11 -26 31 -3 25 0 28 20 25 17 -2
24 -11 26 -31z m819 7 c11 -30 -10 -69 -37 -69 -22 0 -25 4 -22 30 1 17 5 36
7 43 6 18 45 15 52 -4z m-1762 -124 c3 -6 -6 -15 -22 -22 -27 -11 -27 -12 -5
-15 27 -5 29 -29 2 -36 -17 -4 -20 -14 -20 -61 0 -31 -4 -56 -10 -56 -11 0
-12 5 -12 69 0 34 -4 44 -19 48 -25 7 -25 33 1 33 13 0 20 7 20 19 0 27 51 44
65 21z m372 -30 c3 -11 14 -20 24 -20 25 0 24 -17 -1 -25 -16 -5 -20 -15 -20
-47 0 -31 4 -41 20 -45 32 -9 23 -25 -12 -21 -32 3 -33 5 -36 53 -2 33 -9 55
-20 63 -16 12 -16 14 1 23 9 6 17 17 17 24 0 22 21 18 27 -5z m-245 -27 c20
-18 25 -82 8 -114 -13 -23 -72 -26 -90 -4 -7 8 -13 33 -14 54 -1 67 53 103 96
64z m137 3 c17 -20 20 -128 4 -133 -9 -3 -13 9 -13 39 0 48 -20 85 -38 74 -7
-4 -12 -31 -12 -62 0 -41 -4 -54 -15 -54 -12 0 -15 14 -15 69 0 76 -5 70 66
80 6 0 17 -5 23 -13z m261 -20 c0 -14 -4 -27 -9 -30 -18 -11 -41 6 -41 30 0
19 5 24 25 24 20 0 25 -5 25 -24z m1238 -19 c-4 -33 -52 -31 -56 2 -2 13 2 27
9 32 20 12 51 -9 47 -34z m-2995 -48 c-5 -5 -6 11 -3 34 4 41 5 41 8 8 2 -18
0 -37 -5 -42z m-43 41 c-6 -11 -13 -20 -16 -20 -2 0 0 9 6 20 6 11 13 20 16
20 2 0 0 -9 -6 -20z m141 -47 c-11 -21 -20 -35 -21 -31 0 12 33 78 38 74 2 -2
-6 -21 -17 -43z m-214 -15 c-3 -7 -5 -2 -5 12 0 14 2 19 5 13 2 -7 2 -19 0
-25z m1873 -2 c0 -14 -4 -27 -9 -30 -18 -11 -41 6 -41 30 0 19 5 24 25 24 20
0 25 -5 25 -24z m1236 -1 c9 -22 -11 -70 -30 -73 -28 -6 -38 12 -31 52 6 30
12 36 31 36 14 0 27 -7 30 -15z m-1652 -140 c3 -9 0 -15 -9 -15 -16 0 -27 14
-18 24 10 10 21 7 27 -9z m166 -79 l0 -94 -37 -4 c-48 -6 -73 18 -73 71 0 45
20 71 56 71 19 0 24 5 24 25 0 16 6 25 15 25 12 0 15 -17 15 -94z m208 66 c2
-15 10 -22 26 -22 35 0 46 -20 46 -82 0 -45 -3 -58 -15 -58 -12 0 -15 13 -15
55 0 41 -4 55 -14 55 -20 0 -25 -9 -27 -63 -2 -31 -7 -47 -16 -47 -10 0 -13
23 -13 96 0 72 3 95 13 92 6 -3 13 -14 15 -26z m-111 -2 c3 -11 14 -20 24 -20
11 0 19 -7 19 -15 0 -8 -9 -15 -20 -15 -19 0 -22 -9 -22 -55 0 -30 2 -35 22
-35 11 0 20 -5 20 -11 0 -6 -14 -9 -32 -7 -32 3 -33 4 -36 56 -2 36 -7 52 -17
52 -23 0 -28 21 -6 27 12 3 21 13 21 24 0 25 20 24 27 -1z m553 -2 c0 -7 -12
-14 -27 -15 -26 -1 -27 0 -8 13 23 17 35 18 35 2z m158 0 c6 -7 13 -31 16 -53
3 -22 3 -32 0 -22 -3 9 -10 17 -15 17 -5 0 -9 13 -9 29 0 23 -5 31 -22 34 -22
4 -22 4 -2 6 12 0 26 -5 32 -11z m140 0 c14 -14 16 -62 2 -53 -5 3 -10 18 -10
32 0 22 -4 25 -25 21 -13 -3 -22 -1 -19 3 8 13 38 11 52 -3z m89 -4 c-3 -3
-12 -4 -19 -1 -8 3 -5 6 6 6 11 1 17 -2 13 -5z m-2559 -37 c-9 -6 -20 -21 -26
-32 -6 -11 -12 -15 -12 -9 0 15 41 66 48 59 3 -3 -1 -11 -10 -18z m1150 -15
c4 -36 9 -39 27 -15 14 19 35 10 35 -15 0 -15 2 -15 10 -2 5 8 10 25 10 37 0
21 16 40 26 30 3 -2 -1 -34 -7 -71 -10 -53 -16 -66 -31 -66 -11 0 -18 7 -18
19 0 29 -18 35 -22 9 -2 -13 -10 -24 -18 -26 -12 -2 -19 12 -28 56 -15 73 -15
85 1 80 6 -3 13 -19 15 -36z m206 -22 c1 -49 3 -55 24 -58 46 -7 20 -22 -39
-22 -37 0 -58 4 -54 10 3 6 15 10 26 10 28 0 27 73 -1 93 -24 17 -15 29 19 25
22 -3 24 -7 25 -58z m556 29 c0 -26 -3 -30 -22 -27 -17 2 -24 11 -26 31 -3 23
0 27 22 27 22 0 26 -4 26 -31z m824 9 c14 -22 -12 -52 -37 -42 -17 6 -23 44
-10 58 11 11 35 3 47 -16z m-477 -20 c-3 -8 -6 -5 -6 6 -1 11 2 17 5 13 3 -3
4 -12 1 -19z m306 -2 c21 -16 22 -26 2 -26 -8 0 -15 6 -15 14 0 8 -6 17 -12
19 -7 3 -8 6 -3 6 6 0 18 -6 28 -13z m-2472 -39 c-10 -9 -11 -8 -5 6 3 10 9
15 12 12 3 -3 0 -11 -7 -18z m2324 -14 c-7 -17 -8 -17 -15 2 -9 24 -2 41 12
27 6 -6 7 -19 3 -29z m-137 0 c-4 -37 33 -45 50 -11 10 18 11 19 9 4 -3 -28
-33 -44 -54 -30 -20 12 -30 64 -13 64 6 0 9 -12 8 -27z m-2378 -9 c0 -8 -4
-14 -8 -14 -4 0 -8 9 -8 19 0 11 4 17 8 15 4 -3 8 -12 8 -20z m53 11 c-3 -9
-8 -14 -10 -11 -3 3 -2 9 2 15 9 16 15 13 8 -4z m2524 -7 c-3 -8 -6 -5 -6 6
-1 11 2 17 5 13 3 -3 4 -12 1 -19z m-569 -21 c3 -25 0 -28 -20 -25 -17 2 -24
11 -26 31 -3 25 0 28 20 25 17 -2 24 -11 26 -31z m825 12 c14 -22 -12 -74 -38
-74 -16 0 -20 6 -19 33 1 18 5 39 8 48 7 19 35 15 49 -7z m-2581 -21 c-8 -8
-9 -4 -5 13 4 13 8 18 11 10 2 -7 -1 -18 -6 -23z m2048 2 c11 -7 3 -10 -30 -9
-34 0 -40 2 -25 9 27 12 37 12 55 0z m260 -6 c0 -2 -11 -4 -25 -4 -14 0 -25 4
-25 9 0 4 11 6 25 3 14 -2 25 -6 25 -8z m147 0 c-3 -3 -12 -4 -19 -1 -8 3 -5
6 6 6 11 1 17 -2 13 -5z m-1445 -132 c-3 -18 2 -22 27 -22 36 0 61 -31 61 -75
0 -49 -24 -74 -70 -73 l-40 0 0 100 c0 75 3 99 13 95 6 -2 11 -14 9 -25z m428
-17 c0 -50 8 -55 35 -25 17 19 45 27 45 13 0 -4 -10 -17 -22 -30 l-21 -22 26
-41 c31 -46 32 -50 13 -50 -8 0 -24 14 -36 30 -27 38 -40 38 -40 0 0 -19 -4
-28 -12 -25 -9 4 -13 30 -12 88 2 107 2 107 14 107 6 0 10 -20 10 -45z m898
-57 l-3 -93 -36 -3 c-48 -4 -69 17 -69 70 0 48 22 78 57 78 16 0 23 6 23 20 0
11 7 20 15 20 13 0 15 -15 13 -92z m-1114 29 c9 -13 14 -42 13 -72 l-2 -49
-42 -3 c-45 -3 -73 15 -73 46 0 25 20 41 52 41 18 0 28 5 28 15 0 10 -11 15
-35 15 -58 0 -41 28 17 29 18 1 33 -7 42 -22z m144 -1 c3 -12 0 -16 -8 -11 -6
4 -22 4 -36 1 -22 -6 -25 -11 -22 -44 3 -35 5 -37 36 -37 44 0 40 -29 -5 -33
-37 -4 -63 26 -63 73 0 47 26 77 63 73 22 -2 33 -9 35 -22z m251 18 l31 -6 0
-78 c0 -87 -16 -114 -66 -108 -40 4 -42 26 -2 30 18 2 32 8 30 13 -2 6 -10 9
-19 7 -8 -2 -24 4 -34 14 -24 22 -26 90 -2 116 18 20 19 20 62 12z m179 -11
c2 -8 -5 -13 -16 -13 -32 0 -52 -27 -52 -71 0 -26 -4 -39 -13 -39 -10 0 -13
13 -12 43 3 82 4 85 28 90 35 7 60 3 65 -10z m114 0 c12 -10 18 -30 18 -56 0
-98 -109 -108 -113 -10 -2 69 51 106 95 66z m276 5 c7 -7 12 -38 12 -70 0 -45
-3 -58 -15 -58 -11 0 -15 12 -15 50 0 28 -4 50 -10 50 -5 0 -13 1 -17 3 -5 1
-10 -23 -13 -53 -7 -74 -24 -65 -28 14 -3 60 -1 65 20 69 42 8 54 7 66 -5z
m252 -3 c18 -21 5 -45 -25 -45 -20 0 -25 5 -25 23 0 39 26 50 50 22z m1734 -7
c8 -13 6 -22 -8 -37 -18 -20 -18 -22 -3 -39 22 -24 21 -45 0 -70 -14 -16 -23
-18 -40 -12 -28 11 -29 25 -3 72 17 31 17 38 5 48 -18 15 -19 32 -3 48 16 16
38 12 52 -10z m-2184 -38 c0 -37 4 -52 16 -57 22 -8 34 14 34 65 0 31 4 42 13
40 8 -3 12 -26 12 -69 l0 -64 -40 -3 c-50 -4 -65 15 -65 85 0 40 4 53 15 53
11 0 15 -12 15 -50z m-1983 -2 c-3 -8 -6 -5 -6 6 -1 11 2 17 5 13 3 -3 4 -12
1 -19z m-276 -15 c-8 -15 -10 -15 -11 -2 0 17 10 32 18 25 2 -3 -1 -13 -7 -23z
m79 -13 c-6 -12 -14 -20 -17 -17 -2 3 1 14 8 26 17 26 24 19 9 -9z m2630 -20
c14 -26 5 -40 -26 -40 -18 0 -24 5 -24 23 0 41 31 52 50 17z m-2698 -22 c-8
-8 -9 -4 -5 13 4 13 8 18 11 10 2 -7 -1 -18 -6 -23z m1306 -189 c3 -72 11 -94
34 -94 6 0 13 -6 16 -12 2 -8 -5 -13 -20 -13 -44 0 -52 15 -56 94 -3 56 -8 76
-18 76 -17 0 -18 17 -1 23 35 12 42 1 45 -74z m152 56 c0 -8 -7 -15 -15 -15
-8 0 -15 7 -15 15 0 8 7 15 15 15 8 0 15 -7 15 -15z m512 -7 c2 -16 10 -22 31
-23 38 -1 48 -20 45 -83 -4 -69 -22 -71 -28 -3 -3 30 -10 56 -17 58 -18 6 -35
-34 -31 -75 2 -28 -1 -37 -12 -37 -10 0 -15 9 -14 25 1 14 2 55 3 93 1 63 16
93 23 45z m318 7 c0 -8 -4 -15 -10 -15 -5 0 -10 7 -10 15 0 8 5 15 10 15 6 0
10 -7 10 -15z m237 -4 c3 -11 17 -21 33 -24 31 -7 40 -28 40 -94 0 -32 -4 -43
-15 -43 -11 0 -15 11 -15 43 0 23 -5 49 -10 57 -16 23 -40 -15 -40 -62 0 -27
-4 -38 -15 -38 -12 0 -15 17 -15 90 0 76 3 90 16 90 9 0 18 -9 21 -19z m157
-6 c3 -8 12 -15 21 -15 22 0 18 -27 -5 -33 -29 -8 -29 -77 0 -84 23 -6 22 -26
-2 -31 -26 -5 -48 27 -48 67 0 22 -6 44 -15 51 -13 11 -12 15 8 36 26 28 33
29 41 9z m-1070 -31 c22 -22 23 -134 1 -134 -11 0 -15 13 -15 54 0 89 -42 88
-44 0 -1 -28 -6 -49 -13 -52 -10 -3 -13 15 -13 66 0 65 2 71 23 75 40 8 45 7
61 -9z m146 -4 c11 -11 20 -29 20 -40 0 -17 -7 -20 -45 -20 -33 0 -45 -4 -45
-15 0 -20 32 -35 58 -28 16 4 22 1 22 -11 0 -27 -75 -22 -94 6 -23 32 -20 78
6 105 26 28 52 29 78 3z m412 3 c10 -9 18 -27 18 -40 0 -20 -5 -23 -38 -23
-43 0 -53 -6 -45 -26 3 -9 20 -14 45 -14 35 0 39 -2 28 -15 -16 -19 -59 -19
-85 1 -14 10 -20 26 -20 53 0 67 54 103 97 64z m116 -45 c2 -47 6 -57 23 -61
12 -3 18 -10 14 -16 -8 -13 -75 -14 -95 -1 -11 7 -9 11 14 19 25 10 27 15 23
48 -3 20 -13 41 -22 46 -14 8 -15 11 -4 18 31 20 44 5 47 -53z m146 52 c24 -9
26 -14 26 -78 0 -84 -17 -115 -63 -110 -42 4 -48 28 -8 28 17 0 31 5 31 10 0
6 -8 10 -17 10 -48 0 -73 91 -36 132 18 21 31 22 67 8z m404 -22 c3 -24 0 -28
-23 -28 -27 0 -41 20 -31 46 10 27 51 13 54 -18z m400 0 c3 -24 0 -28 -23 -28
-27 0 -41 20 -31 46 10 27 51 13 54 -18z m-1778 -34 c0 -47 3 -57 20 -61 11
-3 20 -9 20 -14 0 -12 -97 -11 -105 1 -3 6 3 10 14 10 18 0 21 6 21 50 0 38
-4 50 -15 50 -8 0 -15 5 -15 10 0 6 14 10 30 10 30 0 30 0 30 -56z m-1263 21
c-7 -13 -14 -20 -15 -14 -2 5 2 16 8 24 18 21 20 18 7 -10z m1723 -26 c0 -12
-117 -12 -125 0 -3 5 2 11 11 13 30 6 114 -4 114 -13z m-1927 -14 c-3 -9 -8
-14 -10 -11 -3 3 -2 9 2 15 9 16 15 13 8 -4z m146 -28 c0 -21 -1 -21 -9 -2
-12 28 -12 37 0 30 6 -3 10 -16 9 -28z m2699 -9 c3 -24 0 -28 -23 -28 -27 0
-41 20 -31 46 10 27 51 13 54 -18z m406 17 c3 -8 0 -28 -5 -45 -8 -22 -17 -30
-35 -30 -21 0 -24 5 -24 38 0 21 3 42 7 45 12 13 51 7 57 -8z m-3242 -37 c-6
-6 -7 0 -4 19 5 21 7 23 10 9 2 -10 0 -22 -6 -28z m2426 -119 c-2 -6 -8 -10
-13 -10 -5 0 -11 4 -13 10 -2 6 4 11 13 11 9 0 15 -5 13 -11z m407 -59 c0 -18
-6 -26 -23 -28 -24 -4 -38 18 -28 44 3 9 15 14 28 12 17 -2 23 -10 23 -28z
m-915 -40 c0 -6 -28 -10 -65 -10 -37 0 -65 4 -65 10 0 6 28 10 65 10 37 0 65
-4 65 -10z"/>
<path d="M2930 6215 c0 -31 26 -43 47 -22 21 21 9 47 -22 47 -20 0 -25 -5 -25
-25z"/>
<path d="M1959 5993 c-6 -16 -6 -30 0 -36 13 -13 42 -5 55 16 9 15 7 21 -8 33
-28 20 -35 18 -47 -13z"/>
<path d="M1535 5986 c-9 -14 -15 -37 -13 -53 2 -22 8 -28 28 -28 29 0 47 38
36 79 -8 33 -31 34 -51 2z"/>
<path d="M2527 5922 c-26 -29 -31 -67 -11 -87 17 -17 19 -16 36 5 35 44 12
123 -25 82z"/>
<path d="M2106 5955 c-23 -23 -31 -62 -16 -80 20 -25 40 -17 56 21 14 35 14
38 -4 56 -18 18 -20 18 -36 3z"/>
<path d="M2937 5943 c-4 -3 -7 -17 -7 -30 0 -18 6 -23 24 -23 30 0 40 13 31
40 -6 19 -35 27 -48 13z"/>
<path d="M2916 5845 c-11 -44 12 -58 48 -32 26 19 13 57 -19 57 -16 0 -25 -7
-29 -25z"/>
<path d="M3470 5850 c-27 -50 13 -116 44 -75 18 24 20 49 6 76 -14 25 -36 24
-50 -1z"/>
<path d="M2104 5656 c-22 -16 -10 -36 22 -36 17 0 24 6 24 19 0 24 -23 33 -46
17z"/>
<path d="M2384 5635 c-16 -13 -17 -16 -4 -25 33 -22 65 -9 49 21 -12 23 -19
24 -45 4z"/>
<path d="M2653 5615 c-7 -19 -2 -24 25 -30 27 -5 38 11 22 30 -16 19 -39 19
-47 0z"/>
<path d="M1115 5410 c3 -5 13 -10 21 -10 8 0 14 5 14 10 0 6 -9 10 -21 10 -11
0 -17 -4 -14 -10z"/>
<path d="M1400 5390 c0 -5 6 -10 14 -10 8 0 18 5 21 10 3 6 -3 10 -14 10 -12
0 -21 -4 -21 -10z"/>
<path d="M1257 5104 c-13 -13 -7 -61 8 -74 12 -10 16 -8 24 11 13 37 -11 84
-32 63z"/>
<path d="M1674 4777 c-3 -9 -4 -28 -2 -44 2 -20 8 -28 23 -28 17 0 20 7 20 40
0 30 -4 41 -18 43 -9 2 -20 -3 -23 -11z"/>
<path d="M2367 4694 c-11 -11 5 -34 23 -34 18 0 34 23 23 34 -4 3 -14 6 -23 6
-9 0 -19 -3 -23 -6z"/>
<path d="M1681 4487 c-7 -9 -11 -31 -9 -49 4 -43 38 -47 49 -6 10 38 -20 79
-40 55z"/>
<path d="M2377 4453 c-14 -13 -6 -23 18 -23 18 0 23 4 19 15 -6 16 -26 20 -37
8z"/>
<path d="M2652 4438 c-22 -22 -12 -88 13 -88 26 0 35 69 12 89 -10 8 -17 7
-25 -1z"/>
<path d="M1681 4191 c-7 -5 -11 -23 -9 -47 2 -31 7 -39 23 -39 16 0 21 8 23
36 3 38 -15 63 -37 50z"/>
<path d="M2785 4130 c-3 -5 1 -10 9 -10 9 0 19 0 23 -1 4 0 9 4 11 10 5 14
-35 14 -43 1z"/>
<path d="M1246 3594 c-10 -26 4 -65 23 -62 11 2 17 16 19 41 3 31 0 37 -16 37
-11 0 -23 -7 -26 -16z"/>
<path d="M971 3317 c-16 -16 -14 -52 4 -67 21 -17 35 -4 35 35 0 35 -20 51
-39 32z"/>
<path d="M1532 3298 c-24 -24 -8 -86 21 -75 19 7 26 37 16 65 -9 25 -19 28
-37 10z"/>
<path d="M1957 2994 c-12 -13 -8 -71 7 -83 20 -17 38 10 34 51 -3 31 -25 48
-41 32z"/>
<path d="M1810 2995 c-11 -13 -8 -15 20 -15 28 0 31 2 20 15 -7 8 -16 15 -20
15 -4 0 -13 -7 -20 -15z"/>
<path d="M2637 2916 c-3 -7 -1 -18 5 -24 15 -15 38 -3 38 19 0 22 -35 26 -43
5z"/>
<path d="M2784 2956 c-10 -26 1 -71 18 -74 20 -4 32 29 24 64 -7 26 -33 33
-42 10z"/>
<path d="M2922 2958 c-25 -25 -7 -86 22 -75 16 6 21 42 10 71 -7 19 -16 20
-32 4z"/>
<path d="M3055 2950 c3 -5 15 -10 26 -10 10 0 19 5 19 10 0 6 -12 10 -26 10
-14 0 -23 -4 -19 -10z"/>
<path d="M3187 2903 c-14 -13 -6 -33 12 -33 19 0 35 23 24 34 -8 8 -28 8 -36
-1z"/>
<path d="M3454 2889 c-3 -6 -2 -15 4 -21 13 -13 32 -2 32 18 0 16 -26 19 -36
3z"/>
<path d="M3870 2930 c0 -6 7 -10 15 -10 8 0 15 2 15 4 0 2 -7 6 -15 10 -8 3
-15 1 -15 -4z"/>
<path d="M1247 2414 c-12 -12 -8 -49 7 -69 13 -18 14 -18 25 4 7 12 11 32 9
44 -3 22 -28 34 -41 21z"/>
<path d="M1105 2120 c-3 -5 3 -10 14 -10 12 0 21 5 21 10 0 6 -6 10 -14 10 -8
0 -18 -4 -21 -10z"/>
<path d="M1524 2059 c-3 -6 -2 -15 4 -21 13 -13 32 -2 32 18 0 16 -26 19 -36
3z"/>
<path d="M1823 2113 c-7 -3 -13 -8 -13 -13 0 -10 24 -7 28 4 5 11 -1 14 -15 9z"/>
<path d="M1945 2050 c-7 -12 2 -30 15 -30 5 0 14 9 20 20 9 17 8 20 -9 20 -11
0 -23 -4 -26 -10z"/>
<path d="M1100 1820 c0 -5 9 -10 20 -10 11 0 20 5 20 10 0 6 -9 10 -20 10 -11
0 -20 -4 -20 -10z"/>
<path d="M1385 1820 c-4 -6 5 -10 20 -10 15 0 24 4 20 10 -3 6 -12 10 -20 10
-8 0 -17 -4 -20 -10z"/>
<path d="M1520 1519 c-15 -27 -9 -59 13 -73 14 -8 20 -8 27 4 13 21 12 64 -2
78 -17 17 -26 15 -38 -9z"/>
<path d="M2355 1510 c-4 -6 5 -10 19 -10 14 0 26 5 26 10 0 6 -9 10 -19 10
-11 0 -23 -4 -26 -10z"/>
<path d="M1658 1215 c-9 -19 -7 -29 6 -50 14 -21 20 -24 32 -14 24 20 15 89
-12 89 -8 0 -19 -11 -26 -25z"/>
<path d="M1794 927 c-3 -9 -4 -28 -2 -44 2 -20 8 -28 23 -28 17 0 20 7 20 40
0 30 -4 41 -18 43 -9 2 -20 -3 -23 -11z"/>
<path d="M1516 625 c-8 -32 10 -67 32 -63 13 2 17 14 17 43 0 33 -4 41 -21 43
-16 2 -23 -4 -28 -23z"/>
<path d="M2772 638 c-18 -18 -15 -68 4 -75 9 -3 20 0 25 8 22 35 -3 93 -29 67z"/>
<path d="M1655 590 c-3 -5 -3 -14 0 -20 10 -17 34 -11 45 10 9 17 8 20 -14 20
-14 0 -28 -4 -31 -10z"/>
<path d="M2074 636 c-10 -26 1 -71 18 -74 20 -4 32 29 24 64 -7 26 -33 33 -42
10z"/>
<path d="M2354 637 c-10 -28 0 -72 18 -75 21 -4 36 43 21 66 -14 22 -32 26
-39 9z"/>
<path d="M1947 354 c-14 -14 -7 -25 13 -22 12 2 21 8 21 13 0 12 -24 18 -34 9z"/>
<path d="M2355 350 c-8 -12 20 -24 35 -15 6 3 8 11 5 16 -8 12 -32 12 -40 -1z"/>
<path d="M2624 346 c-10 -26 0 -71 16 -71 22 0 37 50 20 69 -16 20 -29 20 -36
2z"/>
<path d="M1662 58 c-7 -7 -12 -22 -12 -35 0 -19 5 -23 30 -23 32 0 38 16 20
51 -12 22 -21 24 -38 7z"/>
<path d="M1801 51 c-18 -34 -13 -51 15 -51 22 0 25 4 22 32 -4 37 -22 47 -37
19z"/>
<path d="M2478 30 c-3 -20 0 -30 9 -30 7 0 13 11 13 24 0 36 -17 41 -22 6z"/>
<path d="M2527 54 c-10 -10 -9 -54 2 -54 12 0 22 43 13 52 -5 5 -11 5 -15 2z"/>
<path d="M2350 10 c0 -5 9 -10 20 -10 11 0 20 5 20 10 0 6 -9 10 -20 10 -11 0
-20 -4 -20 -10z"/>
</g>
</svg>
