<svg width="48" height="48" viewBox="0 0 48 48" fill="none" xmlns="http://www.w3.org/2000/svg">
<g clip-path="url(#clip0_3_59)">
<path d="M24 47.7024C20.0841 47.7024 16.2562 46.5413 13.0002 44.3658C9.74422 42.1904 7.20641 39.0983 5.70765 35.4806C4.20889 31.8629 3.81651 27.8821 4.58011 24.0414C5.3437 20.2007 7.229 16.6726 9.9976 13.9034C12.7662 11.1341 16.2938 9.24796 20.1343 8.48343C23.9748 7.7189 27.9558 8.11032 31.5738 9.6082C35.1919 11.1061 38.2845 13.6432 40.4608 16.8986C42.637 20.1541 43.7991 23.9817 43.8 27.8976C43.7937 33.1474 41.7057 38.1804 37.994 41.893C34.2823 45.6056 29.2498 47.6948 24 47.7024ZM24 14.1024C21.2704 14.1024 18.6021 14.9119 16.3326 16.4284C14.0631 17.945 12.2944 20.1006 11.25 22.6225C10.2057 25.1444 9.93266 27.9193 10.4655 30.5964C10.9984 33.2735 12.3132 35.7324 14.2436 37.6622C16.1741 39.5919 18.6334 40.9059 21.3107 41.4378C23.988 41.9698 26.7628 41.6958 29.2844 40.6506C31.8059 39.6053 33.9608 37.8358 35.4766 35.5658C36.9924 33.2957 37.801 30.6272 37.8 27.8976C37.7949 24.2396 36.3392 20.733 33.7522 18.1468C31.1651 15.5607 27.658 14.1062 24 14.1024Z" fill="black"/>
<path d="M3.59999 14.6976C2.88844 14.697 2.19303 14.4855 1.6016 14.0899C1.01016 13.6943 0.549231 13.1323 0.277016 12.4748C0.00480169 11.8174 -0.0664848 11.0941 0.0721603 10.3961C0.210805 9.69823 0.553163 9.05706 1.05599 8.5536L8.25599 1.3536C8.58825 1.00992 8.98562 0.735857 9.42492 0.547395C9.86422 0.358932 10.3367 0.259847 10.8147 0.25592C11.2927 0.251993 11.7667 0.343303 12.209 0.524523C12.6513 0.705743 13.0532 0.973243 13.391 1.31141C13.7289 1.64959 13.996 2.05166 14.1768 2.49417C14.3576 2.93668 14.4485 3.41076 14.4441 3.88877C14.4397 4.36677 14.3402 4.83911 14.1513 5.27824C13.9624 5.71736 13.688 6.11447 13.344 6.4464L6.14399 13.6464C5.8101 13.9806 5.41347 14.2454 4.97689 14.4258C4.5403 14.6062 4.07238 14.6986 3.59999 14.6976Z" fill="black"/>
<path d="M44.4 14.6976C43.9276 14.6986 43.4597 14.6062 43.0231 14.4258C42.5865 14.2454 42.1899 13.9806 41.856 13.6464L34.656 6.44639C33.9999 5.76774 33.6366 4.85854 33.6444 3.91462C33.6521 2.9707 34.0303 2.0676 34.6975 1.39981C35.3646 0.732022 36.2674 0.352988 37.2113 0.344344C38.1552 0.335699 39.0647 0.698136 39.744 1.35359L46.944 8.55359C47.4468 9.05705 47.7892 9.69822 47.9278 10.3961C48.0665 11.0941 47.9952 11.8174 47.723 12.4748C47.4508 13.1322 46.9898 13.6943 46.3984 14.0899C45.807 14.4855 45.1116 14.697 44.4 14.6976Z" fill="black"/>
<path d="M31.2 30.9024H24C23.6056 30.9024 23.2151 30.8246 22.8508 30.6736C22.4866 30.5225 22.1556 30.3011 21.877 30.022C21.5983 29.7429 21.3775 29.4117 21.227 29.0471C21.0765 28.6826 20.9994 28.292 21 27.8976V20.6976C21 19.902 21.3161 19.1389 21.8787 18.5763C22.4413 18.0137 23.2044 17.6976 24 17.6976C24.7957 17.6976 25.5587 18.0137 26.1213 18.5763C26.6839 19.1389 27 19.902 27 20.6976V24.9024H31.2C31.9957 24.9024 32.7587 25.2185 33.3213 25.7811C33.8839 26.3437 34.2 27.1068 34.2 27.9024C34.2 28.6981 33.8839 29.4611 33.3213 30.0237C32.7587 30.5863 31.9957 30.9024 31.2 30.9024Z" fill="black"/>
</g>
<defs>
<clipPath id="clip0_3_59">
<rect width="48" height="48" fill="white"/>
</clipPath>
</defs>
</svg>
